<svg width="62" height="62" viewBox="0 0 62 62" fill="none" xmlns="http://www.w3.org/2000/svg">
<g clip-path="url(#clip0_631_4561)">
<rect width="62" height="62" rx="12" fill="url(#paint0_linear_631_4561)"/>
<g clip-path="url(#clip1_631_4561)">
<path d="M-11.7192 -8.29645C-10.3892 -7.00379 -9.08159 -5.68124 -7.75157 -4.38858C-7.10151 -3.76094 -6.42156 -3.1557 -5.7416 -2.56541C-5.56975 -2.41597 -5.58469 -2.31137 -5.67436 -2.14698C-5.92093 -1.70613 -6.14509 -1.25781 -6.39914 -0.81696C-6.88482 0.027374 -7.25842 0.931488 -7.94584 1.65627C-8.11023 1.82813 -7.99815 1.94767 -7.80388 2.01492C-6.39167 2.53049 -5.21856 3.47944 -3.92591 4.21169C-3.85866 4.24905 -3.81382 4.40597 -3.83624 4.48816C-4.25467 5.87796 -4.69552 7.26027 -5.10648 8.65007C-5.49503 9.97261 -5.83874 11.3101 -6.20487 12.6401C-6.25717 12.8344 -6.21981 12.9465 -6.00312 12.9988C-5.43525 13.1407 -4.87485 13.2977 -4.30698 13.4471C-3.29078 13.7161 -2.27459 14 -1.24345 14.2466C-0.0927666 14.5231 1.05792 14.7622 2.21608 15.0087C2.41783 15.0536 2.4776 15.1582 2.4776 15.3525C2.47013 15.868 2.48508 16.3911 2.4776 16.9066C2.46266 17.8406 2.45519 18.7672 2.40288 19.7012C2.38794 20 2.46266 20.0523 2.73165 20.015C3.19492 19.9552 3.66565 19.8954 4.12892 19.8954C4.99567 19.888 5.86242 19.9328 6.72917 19.9477C7.31199 19.9552 7.30452 19.9552 7.43902 20.5231C7.77525 21.9428 8.11897 23.3624 8.47015 24.7747C8.76903 25.9776 9.0978 27.1732 9.40415 28.3687C9.45646 28.563 9.53118 28.6975 9.76281 28.6302C10.0617 28.5405 10.368 28.4434 10.6744 28.3612C11.855 28.0324 13.043 27.7111 14.2236 27.3749C15.4341 27.0237 16.6445 26.6576 17.855 26.2765C18.0567 26.2093 18.1539 26.2242 18.251 26.4035C18.9608 27.6962 19.9098 28.8544 20.4029 30.2666C20.4777 30.4683 20.6122 30.5057 20.784 30.3562C20.8587 30.2965 20.9185 30.2292 21.0007 30.1769C22.2037 29.4745 23.4067 28.7722 24.6172 28.0847C24.6919 28.0474 24.8787 28.1072 24.9459 28.1819C25.4989 28.7722 26.0219 29.3998 26.5823 29.9752C27.9347 31.365 29.3021 32.7398 30.662 34.1147C30.9982 34.4584 30.9982 34.4584 31.3494 34.0997C32.5823 32.8444 33.8301 31.5966 35.0555 30.3338C35.7206 29.6539 36.3631 28.9515 36.9833 28.2267C37.1627 28.0175 37.2897 27.9801 37.4989 28.1221C37.5736 28.1744 37.6633 28.2043 37.7455 28.2566C38.9036 28.959 40.2038 29.4447 41.2349 30.3637C41.4068 30.5131 41.5338 30.4384 41.6085 30.2367C42.1166 28.817 43.0655 27.6439 43.7978 26.3512C43.8352 26.284 43.9921 26.2242 44.0668 26.2466C45.5164 26.6725 46.951 27.1358 48.4005 27.5542C49.5811 27.8979 50.7692 28.1968 51.9572 28.5181C52.5027 28.6676 52.4952 28.6676 52.6297 28.1445C53.0033 26.7099 53.4068 25.2753 53.7654 23.8406C54.0643 22.6302 54.3109 21.4048 54.6023 20.1868C54.6247 20.0897 54.7742 19.9627 54.8638 19.9552C55.5064 19.9253 56.149 19.8954 56.7991 19.9104C57.6434 19.9253 58.4803 19.9851 59.3172 20.0225C59.5413 20.0374 59.6609 19.9776 59.5936 19.7161C59.5488 19.5592 59.5114 19.3948 59.5114 19.2304C59.504 17.9153 59.5114 16.6003 59.504 15.2852C59.504 15.076 59.6235 15.0312 59.7804 15.0013C60.7069 14.807 61.6409 14.6426 62.56 14.411C64.3533 13.9627 66.1391 13.462 67.9249 13.0062C68.2014 12.939 68.2313 12.812 68.164 12.5803C67.895 11.6389 67.6335 10.6899 67.3645 9.74845C66.8564 8.00747 66.3408 6.2665 65.8477 4.52552C65.8178 4.42838 65.8701 4.24158 65.9448 4.19675C67.2225 3.46449 68.3882 2.53049 69.7929 2.01492C70.0694 1.91031 70.0619 1.79076 69.8826 1.58155C69.6509 1.32003 69.4268 1.04356 69.2549 0.737205C68.7618 -0.129547 68.2836 -1.00377 67.8128 -1.88546C67.5513 -2.37862 67.5588 -2.38609 68.0071 -2.75222C68.0519 -2.78958 68.0893 -2.8344 68.1341 -2.87177C69.1578 -3.85807 70.1814 -4.84438 71.1976 -5.83816C72.0495 -6.66755 72.8863 -7.50441 73.7456 -8.32633C73.8502 -8.43094 73.91 -8.51314 73.91 -8.6028L73.4094 -8.6028C73.4094 -8.46831 73.2749 -8.34127 73.0059 -8.06481C71.915 -6.9739 70.839 -5.87552 69.7331 -4.79955C68.9859 -4.07476 68.1939 -3.39481 67.372 -2.64761C67.103 -3.14076 66.8564 -3.58161 66.6322 -4.02993C66.5949 -4.10465 66.6173 -4.26904 66.6771 -4.32134C67.6186 -5.20304 68.56 -6.07726 69.509 -6.95896C70.0021 -7.41475 70.4878 -7.87801 70.9884 -8.32633C71.1005 -8.42347 71.1603 -8.51314 71.1528 -8.6028L70.7643 -8.6028C69.3147 -7.2429 67.8726 -5.89793 66.3931 -4.51561C66.0644 -5.03865 65.7431 -5.56169 65.4218 -6.08473C66.1241 -6.66008 66.819 -7.23542 67.5065 -7.80329C67.7232 -7.98262 67.9398 -8.16195 68.1416 -8.35622C68.2238 -8.43842 68.2686 -8.52061 68.2611 -8.59533L67.91 -8.59533C67.6559 -8.3637 67.4317 -8.13206 67.1852 -7.93032C66.6472 -7.482 66.0943 -7.04115 65.5488 -6.6003C65.3396 -6.42844 65.1827 -6.31636 64.966 -6.63766C64.7568 -6.95896 64.4504 -7.22048 64.1814 -7.51189C64.5326 -7.78836 64.8689 -8.06482 65.2126 -8.33381C65.3321 -8.42348 65.3844 -8.51314 65.3844 -8.59533L65.093 -8.59533C64.6821 -8.29645 64.3309 -8.04987 63.9797 -7.80329C63.9349 -7.7734 63.8377 -7.75846 63.7929 -7.78835C63.1951 -8.06482 62.5974 -8.34875 62.0743 -8.59533C62.0743 -8.59533 62.0743 -8.59533 62.0818 -8.59533L58.9958 -8.59533C58.9884 -8.23667 58.9211 -7.88549 58.809 -7.51936C58.4878 -6.48075 58.0021 -5.54674 57.2773 -4.73977C56.7244 -4.12706 56.0145 -3.73852 55.2748 -3.39481C54.4902 -3.02868 53.6608 -3.05109 52.809 -3.09592C52.809 -3.49941 52.809 -3.89543 52.809 -4.31387C53.205 -4.411 53.616 -4.47826 54.012 -4.60528C55.8576 -5.21798 57.0531 -6.45086 57.494 -8.34875C57.5089 -8.43094 57.5239 -8.50566 57.5313 -8.58785L57.1727 -8.58785C57.1802 -8.03492 56.956 -7.54178 56.6646 -7.07104C55.9099 -5.86058 54.8489 -5.03118 53.4068 -4.76966C53.205 -4.7323 52.9958 -4.70989 52.7493 -4.67253C52.6446 -5.14326 52.5475 -5.56916 52.4429 -6.03243C52.6447 -6.08474 52.8389 -6.14451 53.0407 -6.19681C53.9373 -6.43591 54.6845 -6.89171 55.1403 -7.7211C55.3047 -8.01998 55.3943 -8.31139 55.4093 -8.58785L55.0955 -8.58785C55.1029 -8.13206 54.8414 -7.7211 54.3781 -7.26531C53.8551 -6.74974 53.1677 -6.52558 52.4578 -6.38361C52.3831 -6.36867 52.2636 -6.43592 52.2187 -6.50317C52.0245 -6.77963 51.8451 -7.06357 51.6882 -7.30267C52.1141 -7.49694 52.555 -7.64638 52.9435 -7.89296C53.2424 -8.07976 53.3918 -8.3338 53.3918 -8.58038L52.9286 -8.58038C52.9211 -8.4683 52.8613 -8.35622 52.7567 -8.25161C52.3383 -7.82571 51.8003 -7.69122 51.2474 -7.69869C51.0008 -7.69869 50.7617 -7.95274 50.5077 -8.07976C50.1341 -8.26656 49.753 -8.43841 49.4765 -8.57291C49.484 -8.58038 49.4915 -8.58038 49.4989 -8.58785L47.1901 -8.58785C47.1901 -7.60155 46.6895 -6.7871 45.9572 -6.16693C45.1726 -5.50192 44.2386 -5.30764 43.215 -5.54675C42.9983 -5.59905 42.9161 -5.6663 42.931 -5.89046C42.946 -6.09968 42.931 -6.30889 42.931 -6.53305C43.3196 -6.53305 43.6558 -6.52558 43.9921 -6.53305C45.1876 -6.56294 45.9946 -7.28773 46.2561 -8.16195C46.3009 -8.30392 46.3159 -8.45336 46.3233 -8.59533L45.9796 -8.59533C45.9796 -8.01252 45.6135 -7.45211 45.0381 -7.13829C44.3582 -6.77216 43.6185 -6.80204 42.8787 -6.90665C42.8264 -6.91412 42.7667 -6.98138 42.7293 -7.03368C42.55 -7.30267 42.3781 -7.57914 42.1838 -7.88549C42.55 -7.82571 42.9012 -7.72857 43.2523 -7.7211C43.6185 -7.71363 43.9995 -7.74352 44.3507 -7.83318C44.6645 -7.91537 44.8887 -8.2815 44.8812 -8.58785L44.5301 -8.58785C44.5301 -8.43094 44.3507 -8.21425 44.1938 -8.13206C44.007 -8.03493 43.7604 -8.01251 43.5512 -8.01998C42.819 -8.04987 42.1166 -8.21426 41.4591 -8.53555C41.4441 -8.54302 41.4366 -8.55797 41.4292 -8.59533L39.9198 -8.59533C39.9198 -8.56544 39.9198 -8.52808 39.9198 -8.49072C39.8974 -7.78835 39.2249 -7.13829 38.5226 -7.1084C38.3955 -7.10093 38.2685 -7.06357 38.1415 -7.06357C37.88 -7.0561 37.6483 -7.07104 37.5587 -7.40728C37.4167 -7.95273 37.073 -8.34875 36.4976 -8.58785L36.5051 -8.58785L35.1676 -8.58785C35.1676 -8.58785 35.1676 -8.58785 35.1676 -8.58038C35.1676 -8.4683 35.0182 -8.31887 34.8986 -8.26656C34.0468 -7.88549 33.2772 -8.17689 32.4329 -8.58785L29.5786 -8.58785C29.586 -8.58785 29.5935 -8.58038 29.601 -8.58038C28.7641 -8.22172 28.0244 -7.88548 27.195 -8.25161C27.053 -8.31139 26.9484 -8.4683 26.8289 -8.58038C26.8363 -8.58785 26.8363 -8.58786 26.8438 -8.59533L25.5063 -8.59533C25.5063 -8.59533 25.5138 -8.59532 25.5138 -8.58785C24.931 -8.34127 24.6022 -7.91537 24.4304 -7.35497C24.393 -7.24289 24.2436 -7.1084 24.1315 -7.10093C23.5785 -7.04862 22.8164 -7.17565 22.4279 -7.67627C22.2112 -7.95273 22.114 -8.27403 22.114 -8.59533L20.6047 -8.59533C20.6122 -8.5505 20.6122 -8.51313 20.6196 -8.4683C19.9546 -8.31886 19.2896 -8.13954 18.6171 -8.03493C18.3556 -7.9901 18.0418 -8.0424 17.7952 -8.14701C17.6458 -8.20678 17.4963 -8.43094 17.4814 -8.59533L17.1078 -8.59533C17.1078 -8.58038 17.1078 -8.57291 17.1078 -8.55797C17.1227 -8.23667 17.3843 -7.86307 17.7504 -7.81077C18.1987 -7.74352 18.6694 -7.76594 19.1252 -7.77341C19.3494 -7.78088 19.581 -7.84813 19.8127 -7.88549C19.6259 -7.59408 19.4839 -7.28772 19.2672 -7.05609C19.1402 -6.92159 18.8861 -6.88423 18.6844 -6.86182C17.7952 -6.77215 16.9808 -6.89918 16.3681 -7.63891C16.114 -7.94526 16.0094 -8.26655 16.0169 -8.58785L15.6806 -8.58785C15.6657 -8.17689 15.8375 -7.81077 16.0916 -7.47453C16.5847 -6.82446 17.2647 -6.52558 18.0791 -6.52558C18.393 -6.52558 18.7068 -6.52558 19.0729 -6.52558C19.0729 -6.279 19.0879 -6.01001 19.0655 -5.74102C19.058 -5.67377 18.9459 -5.5841 18.8637 -5.56169C17.3095 -5.14325 15.7852 -5.94276 15.2398 -7.20553C15.0679 -7.60902 14.8139 -8.02746 14.7989 -8.44589C14.7989 -8.49072 14.7989 -8.54302 14.7989 -8.58785L12.4826 -8.58785C12.4901 -8.58785 12.4976 -8.58038 12.4976 -8.58038C12.1314 -8.39358 11.6383 -8.18436 11.1825 -7.9079C10.8836 -7.7211 10.5922 -7.62396 10.2709 -7.75846C9.91972 -7.90043 9.56854 -8.06481 9.25471 -8.27403C9.12769 -8.36369 9.06791 -8.47577 9.08286 -8.58785L8.61212 -8.58785C8.61212 -8.3338 8.78398 -8.07976 9.12769 -7.86307C9.49382 -7.63144 9.91972 -7.48946 10.3232 -7.31014C10.1364 -7.03367 9.91972 -6.70491 9.68809 -6.35373C8.55234 -6.57789 7.52868 -6.96643 7.01311 -8.14701C6.94586 -8.29645 6.91598 -8.43841 6.91598 -8.58038L6.58721 -8.58038C6.57226 -8.07228 6.8562 -7.64638 7.18497 -7.25784C7.66318 -6.68997 8.29082 -6.32383 9.03055 -6.18187C9.20988 -6.14451 9.38921 -6.07726 9.56854 -6.02496C9.45646 -5.56169 9.35932 -5.12832 9.25471 -4.68C7.43154 -4.79955 6.14636 -5.73354 5.24224 -7.20553C4.95831 -7.66879 4.83129 -8.13206 4.83876 -8.58038L4.50252 -8.58038C4.49504 -8.01998 4.71173 -7.50441 4.97325 -7.04115C5.59343 -5.95771 6.49007 -5.12832 7.67812 -4.68747C8.06666 -4.5455 8.49257 -4.47825 8.90353 -4.39606C9.11274 -4.3587 9.23977 -4.29892 9.22482 -4.04488C9.20241 -3.73105 9.21735 -3.41723 9.21735 -3.11087C7.63329 -2.87177 6.31074 -3.37986 5.14511 -4.35123C3.972 -5.32259 3.39666 -6.6526 3.04548 -8.07976C3.00812 -8.23667 2.99317 -8.40852 3.00064 -8.58038L-0.0778225 -8.58038C-0.0778225 -8.58038 -0.0778225 -8.58038 -0.0703505 -8.58038C-0.585918 -8.34127 -1.16874 -8.06481 -1.75155 -7.79582C-1.8188 -7.76593 -1.94582 -7.76593 -2.0056 -7.80329C-2.35678 -8.03492 -2.69302 -8.2815 -3.09651 -8.57291C-3.09651 -8.57291 -3.08904 -8.57291 -3.08904 -8.58038L-3.40287 -8.58038C-3.40287 -8.45335 -3.23848 -8.33381 -2.90971 -8.0424C-2.68555 -7.84065 -2.41656 -7.68374 -2.18493 -7.51936C-2.53611 -7.13081 -2.86488 -6.75721 -3.24595 -6.33878C-4.15007 -7.08598 -5.03176 -7.81076 -5.97324 -8.58785L-6.302 -8.58785C-6.302 -8.50566 -6.2497 -8.42347 -6.15256 -8.34128C-5.25592 -7.58661 -4.35928 -6.83193 -3.44023 -6.06232C-3.74658 -5.56169 -4.06787 -5.04612 -4.40411 -4.50066C-5.8761 -5.87552 -7.31072 -7.22047 -8.77524 -8.58038L-9.17873 -8.58038C-9.17873 -8.47577 -9.08159 -8.37117 -8.87237 -8.18437C-7.90848 -7.30267 -6.95954 -6.41349 -6.00312 -5.52433C-5.59216 -5.14325 -5.18867 -4.75472 -4.76277 -4.38112C-4.60586 -4.24662 -4.53861 -4.13454 -4.65816 -3.94027C-4.90474 -3.5293 -5.1289 -3.1034 -5.42031 -2.58783C-7.49752 -4.60527 -9.52244 -6.57041 -11.5997 -8.58038L-11.906 -8.58038C-11.906 -8.51313 -11.8388 -8.416 -11.7192 -8.29645ZM-5.88357 12.6849C-5.09901 9.93525 -4.32939 7.20797 -3.53736 4.42838C-3.05168 4.70485 -2.66314 4.92154 -2.28206 5.13822C-2.06538 5.26525 -1.99066 5.41469 -2.08032 5.68368C-2.64819 7.48443 -3.18618 9.28518 -3.7391 11.0859C-3.8736 11.5343 -3.85118 11.5567 -3.39539 11.6538C-2.16251 11.9303 -0.937102 12.2142 0.295778 12.4981C0.908483 12.6401 1.52866 12.7896 2.14136 12.9241C2.32816 12.9614 2.44024 13.0212 2.43277 13.2304C2.4253 13.7011 2.43277 14.1644 2.43277 14.7173C-0.384173 14.2018 -3.08157 13.3798 -5.88357 12.6849ZM1.7304 7.07347C1.60338 7.36488 1.46888 7.66376 1.33439 7.95517C1.04298 8.58282 1.07287 8.65754 1.73788 8.79204C2.08159 8.85928 2.43277 8.8817 2.78396 8.91906C2.69429 9.3599 2.61957 9.79328 2.50749 10.2117C2.48508 10.3014 2.32816 10.4284 2.25344 10.4135C1.20736 10.2491 0.161282 10.0548 -0.884799 9.868C-0.899743 9.868 -0.914687 9.83812 -0.981935 9.77087C-0.593391 8.72479 -0.189902 7.65629 0.213586 6.57285C0.751571 6.75218 1.21484 6.90162 1.7304 7.07347ZM4.12892 6.94645C3.88981 7.2528 3.5461 7.52926 3.40413 7.88792C3.09778 8.65007 2.53738 8.61271 1.90973 8.51557C1.79765 8.50063 1.6781 8.47821 1.48383 8.44085C1.6781 8 1.8649 7.58157 2.05917 7.16313C2.08159 7.11083 2.20114 7.09589 2.27586 7.08841C2.88856 7.03611 3.50127 6.99128 4.12892 6.94645ZM-0.615806 7.87298C-0.847438 8.50063 -1.05665 9.12827 -1.28082 9.75592C-1.37048 10.01 -1.30323 10.137 -1.01182 10.1818C-0.436479 10.2715 0.131394 10.4135 0.706738 10.5181C1.28208 10.6152 1.85743 10.6899 2.46266 10.7721C2.43277 11.3848 2.41036 11.9901 2.38047 12.6252C0.437746 12.1769 -1.49003 11.7285 -3.44022 11.2802C-2.86488 9.3898 -2.28206 7.4919 -1.69178 5.55665C-1.13885 5.85553 -0.615807 6.132 -0.0628778 6.43088C-0.249679 6.92403 -0.44395 7.39477 -0.615806 7.87298ZM8.74662 19.604C7.1775 19.5667 5.6009 19.5442 4.03178 19.5368C3.61335 19.5368 3.19492 19.5966 2.7989 19.6264C2.7989 18.1619 2.7989 16.6899 2.7989 15.218C2.7989 14.7472 2.80637 14.2765 2.7989 13.8057C2.79143 13.477 2.73912 13.1557 2.73912 12.8269C2.73165 12.2217 2.71671 11.609 2.76154 11.0037C2.7989 10.5181 2.90351 10.0324 2.99317 9.55418C3.15756 8.67995 3.6806 8.00748 4.21858 7.33499C4.83129 6.57285 5.75034 6.27397 6.49007 5.76587C6.70676 5.96762 6.91598 6.15442 7.14761 6.36363C6.75906 6.63263 6.35558 6.85678 6.02681 7.15567C4.87612 8.20175 4.14386 9.45704 3.90476 11.0336C3.71049 12.3039 3.72543 13.5741 3.69554 14.8444C3.66565 16.0025 3.77026 17.1607 3.80762 18.3188C3.81509 18.5131 3.87487 18.5878 4.06914 18.5953C4.37549 18.5953 4.67437 18.6401 4.98073 18.6476C6.33316 18.67 7.67812 18.7149 9.03055 18.6924C10.4951 18.67 11.967 18.5579 13.3045 17.9004C13.8052 17.6538 14.2236 17.2279 14.6644 16.8767C14.8737 16.7124 15.0903 16.548 15.2622 16.3462C15.5312 16.01 15.7628 15.6439 16.0468 15.2478C16.2485 15.4795 16.4353 15.6887 16.6296 15.9203C16.1364 16.6526 15.8002 17.5567 15.0605 18.2068C14.104 19.0436 13.0206 19.5144 11.7578 19.5891C11.1526 19.6264 10.5474 19.6862 9.94214 19.6937C9.53118 19.7161 9.14263 19.6115 8.74662 19.604ZM2.45519 -2.75221C2.17125 -2.3562 1.97698 -2.01249 1.70052 -1.72855C1.58843 -1.61647 1.32692 -1.59406 1.14011 -1.61647C0.273362 -1.7435 -0.578447 -1.99007 -1.4452 -2.01248C-2.49128 -2.04237 -3.52242 -1.85558 -4.36675 -1.13079C-4.3817 -1.11585 -4.41159 -1.12331 -4.53861 -1.11584C-4.0604 -1.8481 -3.6345 -2.53553 -3.16376 -3.19306C-2.76774 -3.73852 -2.16998 -3.8506 -1.54981 -3.68621C-0.929631 -3.52183 -0.324399 -3.2902 0.280834 -3.07351C0.97573 -2.83441 1.64821 -2.53552 2.45519 -2.75221ZM-0.959519 -1.67624C-0.272095 -1.63141 0.41533 -1.40725 1.08034 -1.19056C1.60338 -1.02618 1.76029 -0.570389 1.45394 -0.159428C0.363026 1.32003 -1.05666 2.29139 -2.9396 2.3138C-3.95579 2.32127 -4.86738 1.87296 -5.66688 1.24531C-4.71794 -1.00376 -3.27584 -1.84063 -0.959519 -1.67624ZM0.796403 1.05851C1.10275 0.782047 1.39416 0.498107 1.69304 0.214172C1.87237 0.0423158 2.04423 -0.0174567 2.2908 0.117038C2.59716 0.281425 2.92592 0.400974 3.33688 0.580299C2.17872 1.00621 1.6781 2.0224 0.945842 2.79948C0.691794 3.06848 0.445218 3.35989 0.146338 3.59152C-0.406591 4.01743 -1.0193 3.98006 -1.60958 3.68865C-2.23723 3.3823 -2.84246 3.03112 -3.49253 2.67993C-3.00685 2.65004 -2.57347 2.66499 -2.16251 2.59027C-1.02677 2.37358 -0.0479349 1.82813 0.796403 1.05851ZM2.04423 1.96262C2.50749 1.36486 3.09778 0.961375 3.79268 0.72227C4.01684 0.647552 4.27836 0.662494 4.51746 0.640079C4.54735 0.669967 4.57724 0.692382 4.60712 0.72227C3.972 1.91032 3.35183 3.11331 2.67935 4.28641C2.52991 4.55541 2.22356 4.74968 1.96951 4.94395C1.76029 5.10087 1.52119 5.0635 1.27461 4.96637C0.75157 4.7721 0.221058 4.60024 -0.361758 4.39849C0.67685 3.74096 1.3568 2.84432 2.04423 1.96262ZM4.45021 1.61891C4.68185 1.02115 5.03303 0.50558 5.62332 0.169341C5.98945 -0.0324029 6.30327 -0.316342 6.6694 -0.577863C6.46765 -0.0921792 6.25844 0.356143 6.09405 0.826881C5.84748 1.5143 5.81759 2.23161 5.87737 2.94892C5.92967 3.62887 5.57101 4.01742 5.05545 4.34619C4.48757 4.70485 3.8674 4.88418 3.20239 4.96637C2.94834 4.99626 2.70176 5.03362 2.44024 5.0635C3.39666 4.0772 3.95706 2.87421 4.45021 1.61891ZM6.32569 4.09214C6.07164 2.72476 6.07911 1.3798 6.7217 0.109561C7.31199 -1.04113 8.08908 -2.01996 9.41162 -2.43839C9.6059 -2.09468 9.80764 -1.74349 9.97202 -1.44461C9.53118 -0.981347 9.06791 -0.577859 8.70178 -0.0996523C8.14885 0.625133 7.82756 1.47694 7.73789 2.38852C7.70054 2.79948 7.70801 3.22539 7.73789 3.64382C7.82756 4.78704 8.60465 5.41469 9.51623 5.91531C10.2634 6.32627 11.0854 6.44582 11.9147 6.49813C12.6545 6.55043 13.3494 6.32627 14.0293 6.05728C14.0891 6.03486 14.1563 6.00498 14.2385 5.97509C14.4552 6.33374 14.657 6.68493 14.8662 7.02864C13.1925 8.47074 10.4428 8.38855 8.67937 7.17061C8.17127 6.81942 7.68559 6.42341 7.21486 6.02739C6.63204 5.52677 6.46018 4.81693 6.32569 4.09214ZM28.667 -6.27153C28.4951 -5.78585 28.3606 -5.33006 28.5474 -4.85185C28.5698 -4.7846 28.5474 -4.67999 28.5026 -4.62022C28.0393 -3.97762 27.5088 -3.62644 26.7093 -3.86555C26.5225 -3.91785 26.3058 -4.16443 26.2461 -4.3587C26.0518 -5.04612 26.3805 -5.74102 26.9933 -6.09221C27.0754 -6.13704 27.2025 -6.15946 27.2921 -6.12957C27.7554 -5.97265 28.1888 -6.10715 28.667 -6.27153ZM34.7193 -6.13704C34.809 -6.16693 34.9509 -6.12209 35.0406 -6.06979C35.6533 -5.68125 35.9372 -5.04612 35.7504 -4.3587C35.6907 -4.15695 35.459 -3.91785 35.2573 -3.8506C34.5998 -3.64139 33.8301 -4.00751 33.4939 -4.62022C33.464 -4.67999 33.4192 -4.76966 33.4416 -4.81449C33.6807 -5.30764 33.4864 -5.76343 33.3445 -6.26406C33.8227 -6.11462 34.2486 -5.96518 34.7193 -6.13704ZM61.7157 -3.07352C62.2238 -3.26031 62.7244 -3.46206 63.24 -3.6115C64.5999 -4.00751 65.0033 -3.49195 65.5637 -2.67002C65.8925 -2.18435 66.169 -1.66877 66.4156 -1.10838C66.2885 -1.20551 66.1765 -1.32507 66.0345 -1.39978C65.0258 -1.9303 63.9498 -2.14699 62.814 -1.9826C62.1341 -1.88547 61.4616 -1.71361 60.7891 -1.57911C60.565 -1.53428 60.3931 -1.55669 60.2586 -1.78085C60.0643 -2.09468 59.8178 -2.37862 59.5413 -2.74475C60.3558 -2.55047 61.0357 -2.82694 61.7157 -3.07352ZM65.362 -1.36242C66.2512 -1.04113 66.7966 -0.308876 67.3047 0.445797C67.4616 0.677429 67.5588 0.946423 67.7007 1.22289C66.7667 1.91779 65.758 2.37358 64.5999 2.30633C64.0992 2.27644 63.5986 2.09712 63.1204 1.91032C62.1565 1.52177 61.357 0.894123 60.7144 0.0796779C60.2138 -0.562915 60.3184 -0.973877 61.0731 -1.26529C62.4853 -1.81821 63.9274 -1.87799 65.362 -1.36242ZM60.3558 0.251526C61.0432 0.834343 61.7157 1.43958 62.4554 1.9402C63.1578 2.41093 63.9872 2.62763 64.839 2.66499C65.0332 2.67246 65.2275 2.62016 65.504 2.5828C65.362 2.68741 65.2798 2.76213 65.1901 2.80696C64.5924 3.12078 64.0021 3.45702 63.3894 3.74096C62.6272 4.09962 61.9847 3.8082 61.4616 3.2478C60.9087 2.65751 60.423 2.00745 59.8701 1.42464C59.5488 1.0884 59.1453 0.819397 58.7717 0.520516C59.0482 0.400967 59.3695 0.288891 59.6609 0.124508C59.9597 -0.0324055 60.1391 0.0647281 60.3558 0.251526ZM62.3657 4.40596C61.6708 4.63759 61.0507 4.93648 60.3931 5.04108C59.9672 5.10833 59.616 4.71979 59.3545 4.36113C58.7194 3.49438 58.2487 2.54544 57.8601 1.54419C57.748 1.25278 57.5986 0.976315 57.4417 0.647549C58.6447 0.632603 59.4292 1.28267 60.1092 2.14942C60.7443 2.97134 61.3944 3.79326 62.3657 4.40596ZM57.748 2.05976C58.0843 3.1432 58.6596 4.13697 59.5264 5.02614C58.7568 4.98131 58.0619 4.89165 57.4193 4.59277C57.1951 4.48816 56.9859 4.36114 56.7767 4.22664C56.3358 3.92776 56.0743 3.53174 56.1117 2.9564C56.2013 1.72352 55.9772 0.550408 55.3122 -0.533035C56.3358 0.14692 57.3445 0.767102 57.748 2.05976ZM55.7455 1.61144C55.9622 2.76213 55.7904 3.89787 55.4466 5.00373C55.357 5.28766 55.2001 5.57907 54.9983 5.78829C53.9747 6.83437 52.8315 7.70859 51.352 7.97758C50.007 8.22416 48.692 8.1345 47.5189 7.3051C47.3918 7.21544 47.2648 7.14072 47.1154 7.04358C47.332 6.66998 47.5338 6.33374 47.7131 6.04233C48.3184 6.1843 48.8937 6.35616 49.4765 6.45329C50.2835 6.58779 51.083 6.43088 51.8526 6.17683C52.4803 5.96762 53.0332 5.6239 53.5263 5.17558C54.0195 4.73473 54.2138 4.16686 54.2661 3.55416C54.4454 1.53672 53.7131 -0.0772355 52.0917 -1.29517C52.0618 -1.31759 52.0394 -1.34 51.9946 -1.37736C52.1963 -1.72855 52.3906 -2.08721 52.5998 -2.45333C54.4379 -1.69866 55.3943 -0.271507 55.7455 1.61144ZM53.5413 9.21793C52.9062 9.30013 52.286 9.41968 51.6808 9.15816C51.1727 8.94147 50.687 8.69489 50.276 8.50809C50.9784 8.33624 51.7629 8.17185 52.5251 7.94022C52.8763 7.83562 53.2125 7.6264 53.5114 7.40224C54.0942 6.96886 54.6397 7.1183 55.215 7.40971C56.0295 7.82067 56.5301 8.54546 57.098 9.26277C55.895 9.02367 54.7144 9.06102 53.5413 9.21793ZM42.5873 16.5256C43.1552 16.5031 43.5213 16.7497 43.8277 17.1756C44.4105 17.9826 44.5599 18.9166 44.6496 19.9403C43.6708 19.0063 42.5425 18.4683 41.3694 18.005C40.6894 17.736 40.0992 17.3699 39.733 16.6974C39.5462 16.3537 39.2772 16.0623 39.083 15.7933C39.6957 15.995 40.3233 16.264 40.9883 16.4135C41.5039 16.533 42.0568 16.548 42.5873 16.5256ZM23.0032 15.6962C22.2635 16.6302 21.7853 17.6912 20.5449 18.0573C19.5885 18.3413 18.0567 19.1706 17.3693 19.9403C17.4216 18.8045 17.5711 18.2068 18.0119 17.4222C18.3407 16.8394 18.7666 16.4882 19.5063 16.5256C20.7168 16.5928 21.4117 16.5106 23.0032 15.6962ZM4.16628 18.2964C3.99442 17.1308 4.09903 16.0324 4.71921 15.076C5.28708 14.2018 6.13142 13.604 7.11025 13.2379C7.68559 13.0212 8.29082 12.8643 8.90353 12.7821C9.42657 12.7148 9.68062 12.9838 9.63578 13.5218C9.55359 14.6501 9.10527 15.6439 8.46268 16.5629C7.55109 17.863 6.27338 18.3637 4.72668 18.289C4.53988 18.289 4.36055 18.2964 4.16628 18.2964ZM4.906 9.27772C5.58596 8.38855 6.22108 7.51432 7.34188 7.2005C7.69306 7.10336 8.00689 7.10336 8.33566 7.32752C9.38174 8.0523 10.5474 8.4259 11.8923 8.41096C10.7118 9.02367 9.61337 9.51682 8.25346 9.21047C7.18497 8.97136 6.05669 9.02367 4.906 9.27772ZM13.2373 8.34371C13.6632 8.19428 14.0891 8.03736 14.5225 7.88792C14.2012 8.76214 13.9023 9.63637 13.5586 10.4882C13.0953 11.6314 12.2883 12.416 11.0629 12.7074C10.7865 12.7746 10.4801 12.7298 10.1887 12.6924C9.85247 12.6476 9.70303 12.3935 9.68062 12.0648C9.59842 10.9963 10.0467 10.1594 10.8462 9.48693C11.5411 8.88917 12.4004 8.62765 13.2373 8.34371ZM7.50626 9.43463C8.24599 9.45704 8.98572 9.59901 9.74786 9.68868C9.37426 10.4433 8.70926 10.8618 7.9247 11.0635C7.2821 11.2279 6.60962 11.2952 5.95956 11.4446C5.33191 11.5866 4.71173 11.7808 4.07661 11.9602C4.18869 11.3699 4.25594 10.7123 4.47263 10.1071C4.56229 9.85306 4.97325 9.61395 5.26466 9.56912C6.00439 9.44957 6.75906 9.41221 7.50626 9.43463ZM5.42157 11.878C5.9222 11.7435 6.44524 11.6688 6.96828 11.5791C7.7379 11.4446 8.52246 11.3624 9.20241 10.7796C9.16505 11.2653 9.15758 11.6837 9.07538 12.0797C9.0455 12.2067 8.81386 12.3338 8.64948 12.3786C7.49132 12.6999 6.35557 13.0586 5.42157 13.8581C4.83876 14.3587 4.27836 14.8742 4.08408 15.6663C4.04673 15.6588 4.00189 15.6513 3.96453 15.6439C4.01684 14.8444 4.06167 14.0523 4.12145 13.2528C4.18122 12.4533 4.72668 12.0722 5.42157 11.878ZM9.845 14.3512C10.1514 13.3275 10.1663 13.3275 11.2273 13.2304C11.3245 13.2229 11.4291 13.208 11.5934 13.193C10.7491 14.3138 10.8761 15.6439 10.5623 16.8469C10.3008 17.8332 9.89731 18.2142 8.90353 18.3487C8.7242 18.3711 8.5374 18.3861 8.3506 18.3861C7.81261 18.3936 7.27463 18.3861 6.69182 18.3861C8.50004 17.5866 9.32943 16.0922 9.845 14.3512ZM11.2198 14.9863C11.3245 14.2914 11.6009 13.6862 12.0492 13.1557C12.2286 12.9465 12.4751 12.8045 12.7815 12.5579C12.8562 13.8655 12.9534 15.0685 12.9683 16.264C12.9758 16.6899 12.7964 17.1233 12.6769 17.5418C12.6096 17.7958 12.4228 17.9378 12.1464 17.9826C11.5636 18.0797 10.9807 18.2142 10.3531 18.3413C10.9135 17.2578 11.048 16.1146 11.2198 14.9863ZM13.2597 14.6725C13.2373 14.1495 13.1252 13.6339 13.0804 13.1109C13.0355 12.6326 13.17 12.1918 13.3942 11.7659C13.5885 11.3998 13.7379 10.9963 13.9397 10.5405C13.9845 10.9664 14.0144 11.325 14.0667 11.6762C14.1862 12.4907 14.4926 13.2379 14.9708 13.8954C15.3295 14.396 15.3145 14.9041 15.0829 15.4197C14.6794 16.3313 13.9172 16.9141 13.0953 17.5193C13.3793 16.5181 13.3045 15.5916 13.2597 14.6725ZM15.9646 14.7323C15.2248 13.8207 14.5972 12.8568 14.4029 11.6762C14.1563 10.1744 14.3431 8.76214 15.3818 7.52927C15.7255 7.73848 16.0767 7.94022 16.3382 8.09714C16.1813 8.8817 15.9197 9.60648 15.9123 10.3313C15.8973 11.5866 16.2336 12.7746 17.0854 13.7759C17.7803 14.5903 18.6844 14.7397 19.6632 14.7099C20.5374 14.6874 21.3743 14.4259 22.0916 13.9627C22.7267 13.5517 23.2647 12.9838 23.8774 12.4458C24.1389 12.5953 24.4901 12.7896 24.8413 12.9913C24.2137 14.9639 21.7554 16.2939 20.0518 16.1968C19.454 16.1669 18.8637 16.1071 18.266 16.0548C17.3021 15.9726 16.5698 15.4795 15.9646 14.7323ZM26.8737 5.18305C26.8886 5.16811 26.9185 5.17558 27.0007 5.15317C26.799 5.98256 26.6197 6.78206 26.403 7.56662C26.3731 7.6787 26.1788 7.78331 26.0368 7.80573C25.0729 7.96264 24.4378 8.53051 24.2286 9.44957C24.0119 10.406 24.3781 11.4521 25.4914 11.7659C27.0007 12.1918 28.1215 10.7945 27.9198 9.50935C27.8152 8.87423 27.5013 8.40349 27.0231 8.01494C26.9484 7.95517 26.8588 7.82814 26.8737 7.75342C27.0979 6.93898 27.3519 6.12453 27.591 5.30261C27.8376 5.72851 28.0319 6.15441 28.3009 6.52801C28.8687 7.3051 29.728 7.63387 30.6022 7.93275C30.6919 7.96264 30.8339 8.06725 30.8339 8.11955C30.7591 8.77709 30.7517 9.46451 30.5425 10.0847C29.9821 11.7435 28.7791 12.67 27.0231 12.797C26.4478 12.8344 25.8426 12.8643 25.2896 12.7223C24.7517 12.5803 24.2361 12.274 23.7803 11.9452C23.1751 11.5044 22.5997 10.9963 22.2934 10.279C22.1439 9.92778 22.0393 9.55418 21.987 9.17311C21.845 8.04483 22.1888 7.0137 22.7492 6.04981C22.794 5.96762 22.9584 5.87795 23.0406 5.90037C24.4378 6.25155 25.738 6.17683 26.8737 5.18305ZM25.8426 -3.44711C25.5512 -2.87924 25.4241 -2.31137 25.5213 -1.69866C25.5362 -1.62394 25.4764 -1.50439 25.4092 -1.45956C25.0879 -1.22793 24.7741 -0.981352 24.4229 -0.794554C24.0493 -0.600279 23.6607 -0.704889 23.3768 -1.01124C23.0929 -1.31012 22.9883 -1.66878 23.1975 -2.0349C23.3843 -2.37114 23.6159 -2.6775 23.8401 -2.99132C23.8924 -3.05857 24.0045 -3.13329 24.0717 -3.11835C24.6919 -3.02868 25.2747 -3.14823 25.8426 -3.44711ZM25.8874 -2.67002C25.9397 -2.81199 25.9995 -2.95396 26.0667 -3.08845C26.3208 -3.59655 26.3208 -3.58908 26.8886 -3.48447C27.3594 -3.39481 27.7853 -3.54424 28.256 -3.84313C28.1589 -3.1557 28.4204 -2.66255 28.8239 -2.2217C28.8762 -2.1694 28.921 -2.06479 28.8986 -1.99754C28.6819 -1.08596 27.591 -0.48073 26.7243 -0.787081C26.2087 -0.973883 25.5586 -1.80327 25.8874 -2.67002ZM35.4291 -3.55173C35.5039 -3.57414 35.6458 -3.5293 35.6907 -3.46953C36.2212 -2.77463 36.4528 -1.90788 35.7803 -1.16815C35.2349 -0.570391 34.3233 -0.525557 33.7181 -1.10837C33.4939 -1.32506 33.3146 -1.59405 33.1502 -1.86304C33.0979 -1.95271 33.1203 -2.16193 33.195 -2.24412C33.5836 -2.68497 33.8227 -3.17065 33.7479 -3.84313C34.3158 -3.45458 34.8538 -3.37987 35.4291 -3.55173ZM37.8725 -3.11087C37.9622 -3.11835 38.0967 -3.07351 38.149 -3.01374C38.3806 -2.70738 38.6197 -2.40103 38.7915 -2.0648C39.0082 -1.64636 38.926 -1.31012 38.5973 -0.988822C38.2909 -0.689944 37.9397 -0.607749 37.5437 -0.816962C37.2075 -0.996291 36.9011 -1.2354 36.5948 -1.45956C36.5275 -1.50439 36.4678 -1.62394 36.4827 -1.69866C36.6097 -2.34126 36.4229 -2.9166 36.1315 -3.48447C36.6919 -3.15571 37.2598 -3.04363 37.8725 -3.11087ZM37.7305 6.05728C38.1415 5.9975 38.5524 5.93773 38.9634 5.90037C39.0531 5.8929 39.1876 5.96761 39.2324 6.04233C39.9422 7.21544 40.2262 8.48568 39.8825 9.82317C39.7704 10.2565 39.4939 10.6825 39.2025 11.0336C38.8588 11.4446 38.4254 11.7808 38.007 12.1171C37.073 12.8568 35.997 13.0361 34.8538 12.7821C34.3233 12.6625 33.7853 12.5206 33.2772 12.3263C32.6869 12.1021 32.3283 11.609 31.9696 11.1009C31.3195 10.1968 31.2523 9.1731 31.1701 8.13449C31.1626 8.07472 31.2523 7.95517 31.3121 7.94022C32.7542 7.55168 33.8899 6.81942 34.4055 5.29513C34.6446 6.10211 34.8912 6.90161 35.1153 7.71606C35.1377 7.80573 35.0481 7.97011 34.9584 8.03736C34.1963 8.65006 33.9422 9.4421 34.129 10.3836C34.271 11.0934 35.0854 11.736 35.7878 11.8182C36.3258 11.878 36.7741 11.7211 37.1851 11.4147C37.9024 10.8767 38.0593 9.56165 37.5138 8.80697C37.1253 8.27646 36.6546 7.88045 35.9671 7.82067C35.6832 7.79826 35.5935 7.63387 35.5412 7.37235C35.4067 6.70735 35.2274 6.05728 35.0705 5.39227C35.0555 5.32502 35.0481 5.25777 35.0257 5.12328C35.2946 5.3026 35.5113 5.44457 35.728 5.58654C36.3407 5.99003 37.0057 6.15441 37.7305 6.05728ZM42.55 10.137C42.5649 9.88295 42.5799 9.6289 42.55 9.37485C42.5201 9.13575 42.4379 8.90411 42.3781 8.64259C42.5799 8.67248 42.7667 8.71731 42.9609 8.73226C43.1552 8.7472 43.3569 8.73226 43.5811 8.73226C43.8949 9.56912 44.0369 10.4135 43.753 11.2877C43.4466 12.2142 42.8414 12.5579 41.7953 12.3562C41.1975 12.2441 40.682 11.9452 40.2486 11.5044C40.0767 11.3325 39.9124 11.1457 39.7405 10.9664C39.9198 10.6003 40.0917 10.2565 40.271 9.89041C40.4653 10.0697 40.6446 10.279 40.8688 10.4359C41.0855 10.5928 41.332 10.7198 41.5861 10.802C42.1091 10.9888 42.5051 10.7049 42.55 10.137ZM40.7567 12.2964C41.3843 12.7148 42.1016 12.8419 42.8414 12.6924C43.5587 12.5504 44.1938 11.5567 44.2013 10.6301C44.2013 10.3014 44.2162 9.96514 44.1714 9.64384C44.1266 9.32254 44.0145 9.00872 43.9248 8.67995C44.3657 8.54546 44.7841 8.41843 45.2474 8.27646C45.6135 8.97136 45.8227 9.71109 45.7779 10.4882C45.733 11.2428 45.606 11.99 45.2399 12.6924C44.7617 13.5891 44.1565 14.2765 43.0655 14.3512C41.1452 14.4782 39.6284 13.7609 38.4852 12.1918C38.8364 11.863 39.1652 11.5567 39.479 11.2578C39.9049 11.6165 40.3009 11.9975 40.7567 12.2964ZM42.1689 9.22541C42.2212 9.47946 42.2137 9.75592 42.1764 10.01C42.1166 10.391 41.87 10.5181 41.5114 10.3836C41.0556 10.2117 40.7119 9.89789 40.4503 9.4944C40.3756 9.37485 40.3532 9.21046 40.3457 9.06102C40.3009 8.45579 40.2785 7.85803 40.2561 7.40971C40.5848 7.6264 41.0107 7.97011 41.4815 8.20174C41.9298 8.4259 42.0718 8.80698 42.1689 9.22541ZM30.3033 13.3201C30.6994 13.9552 31.3046 13.9477 31.7006 13.3126C31.9322 12.9315 32.0817 12.4981 32.2685 12.0872C32.5225 12.2516 32.8289 12.4384 33.1203 12.6401C33.1651 12.67 33.2174 12.7597 33.2025 12.812C33.0157 13.7385 32.6944 14.5978 31.8725 15.1582C31.0431 15.7186 30.52 15.5841 29.6981 14.807C29.1452 14.284 28.9285 13.5666 28.7791 12.8344C28.7641 12.7746 28.8164 12.6775 28.8687 12.6401C29.1601 12.4458 29.4515 12.259 29.7131 12.0947C29.9148 12.5131 30.0717 12.939 30.3033 13.3201ZM30.1165 11.6538C30.1165 11.4297 30.3407 11.2055 30.4603 10.9813C30.662 10.5853 30.8488 10.1818 30.9908 9.89789C31.2448 10.3761 31.5661 10.9514 31.8575 11.5492C31.9173 11.6762 31.9024 11.878 31.8426 12.0199C31.6857 12.416 31.5213 12.812 31.2971 13.1632C31.1552 13.3873 30.9011 13.3724 30.6919 13.1781C30.251 12.7671 30.124 12.2142 30.1165 11.6538ZM28.7193 13.7833C29.0705 14.7173 29.6458 15.4346 30.6321 15.7559C31.3046 15.9726 31.8351 15.6364 32.2984 15.2404C32.8887 14.7472 33.2697 14.1046 33.4117 13.335C33.4416 13.1632 33.5088 12.9988 33.5537 12.8344C33.9422 12.9166 34.3009 13.0137 34.667 13.0735C34.8538 13.1034 34.8986 13.1706 34.8762 13.35C34.7791 14.284 34.4578 15.1059 33.8675 15.8456C33.1651 16.7198 32.3208 17.3475 31.2075 17.5492C30.9684 17.5941 30.6919 17.5492 30.4603 17.467C28.5923 16.8543 27.5462 15.5168 27.1352 13.6414C27.0979 13.4845 27.1277 13.3201 27.1277 13.1258C27.5387 13.0287 27.9721 12.9315 28.4428 12.8269C28.5325 13.1482 28.5997 13.477 28.7193 13.7833ZM30.1315 3.62888C30.124 3.99501 30.1539 4.37608 30.2361 4.72726C30.3108 5.05603 30.7143 5.31008 31.0132 5.28766C31.3868 5.26525 31.6408 5.04109 31.7828 4.70485C31.9771 4.23411 31.9248 3.74096 31.8202 3.25528C31.7753 3.03859 31.7454 2.8219 31.7006 2.5828C32.0144 2.77707 32.2984 2.95639 32.5823 3.13572C32.6271 3.16561 32.6869 3.21792 32.6869 3.26275C32.7841 4.12203 32.8364 4.96637 32.2535 5.71357C31.4316 6.75965 30.1091 6.52801 29.5113 5.36985C29.1676 4.70484 29.205 3.98753 29.317 3.27769C29.3245 3.21791 29.4067 3.15067 29.474 3.11331C29.7355 2.94145 30.0045 2.7696 30.2959 2.5828C30.2361 2.94146 30.139 3.28517 30.1315 3.62888ZM30.6994 2.4483C30.7591 2.22414 30.8787 2.01493 30.9982 1.72352C31.4167 2.6351 31.6707 3.49438 31.5213 4.43585C31.4765 4.71979 31.3345 4.92901 31.0281 4.94395C30.6994 4.9589 30.5499 4.73473 30.4827 4.44332C30.3258 3.7559 30.5275 3.10584 30.6994 2.4483ZM28.9808 3.33C28.9808 3.84557 28.936 4.33125 28.9883 4.80198C29.0779 5.64632 29.8177 6.46077 30.5499 6.66998C31.5512 6.94645 32.5076 6.19177 32.8438 5.40721C33.0904 4.83187 33.1203 4.22663 33.0306 3.61393C33.0157 3.53921 33.0306 3.45702 33.0306 3.35988C33.0979 3.34494 33.1203 3.33747 33.1427 3.33747C34.0618 3.30011 34.1141 3.34494 34.1215 4.27894C34.1365 5.60149 33.5761 6.58779 32.3806 7.17061C31.9771 7.36488 31.5362 7.61893 31.1103 7.61145C29.9447 7.58904 29.0182 7.02864 28.3532 6.04981C27.8301 5.28019 27.7703 4.43586 27.9796 3.55416C28.002 3.47197 28.1066 3.34494 28.1813 3.33747C28.4354 3.30758 28.6894 3.33 28.9808 3.33ZM37.1477 9.06849C37.2523 9.33749 37.2897 9.6289 37.3569 9.91284C37.3046 10.8991 36.5051 11.5417 35.5487 11.3176C35.0929 11.213 34.9136 10.8169 34.7118 10.4658C34.3009 9.74098 34.4279 8.64259 35.3768 8.2391C36.0045 7.97011 36.8488 8.32877 37.1477 9.06849ZM35.078 4.64507C34.7492 4.25653 34.5773 3.73349 34.3382 3.25528C34.6894 3.04606 34.9435 2.89662 35.1303 2.78454C35.5113 3.30011 35.8401 3.85304 36.281 4.30883C37.0431 5.09339 38.4703 5.08592 39.0904 4.3163C39.6583 3.6214 39.7405 2.81443 39.4416 1.99251C39.2772 1.53672 39.0008 1.12576 38.7691 0.69238C39.0082 0.550409 39.2623 0.400968 39.5238 0.251527C40.8389 1.33497 40.9211 3.26275 40.0693 4.39849C39.7031 4.89164 39.4117 5.4371 38.7617 5.60149C37.3569 5.96761 36.0643 5.79576 35.078 4.64507ZM37.9173 3.42713C38.2984 3.22539 38.4478 2.85179 38.2386 2.25403C38.1041 1.85801 37.7978 1.52178 37.5512 1.16312C37.4615 1.02862 37.342 0.916536 37.2374 0.782037C37.9248 0.602712 38.4179 0.796987 38.7617 1.35739C39.1427 1.97009 39.3818 2.60521 39.21 3.35241C38.8887 4.73473 37.4092 4.80945 36.5873 4.16686C36.0493 3.74843 35.743 3.17308 35.4964 2.56038C35.474 2.5006 35.4665 2.41841 35.4889 2.36611C35.6384 2.06723 35.8027 1.76835 35.9447 1.49936C36.2062 2.02987 36.4379 2.57532 36.7517 3.08342C37.0207 3.5168 37.5437 3.62888 37.9173 3.42713ZM37.7978 2.02987C37.8874 2.17931 37.9622 2.34369 37.992 2.51555C38.0369 2.7696 38.0145 3.06847 37.7305 3.13572C37.5437 3.18055 37.2448 3.11331 37.1104 2.97881C36.5798 2.45577 36.4304 1.73846 36.2436 1.05104C36.1913 0.849294 36.1913 0.6326 36.1689 0.363607C36.8862 0.819402 37.3868 1.3798 37.7978 2.02987ZM35.2872 2.08964C34.8613 2.77706 33.9273 3.15067 33.1502 2.96387C31.9995 2.68741 31.342 1.90285 31.1626 0.677439C31.4092 0.580301 31.6483 0.490633 31.8949 0.393499C32.0667 0.752153 32.2162 1.1407 32.4254 1.48441C32.8065 2.11953 33.2548 2.25403 34.0244 2.03734C34.5026 1.90285 34.8912 1.29761 34.8314 0.774568C34.7866 0.408441 34.7641 0.034845 34.7268 -0.361174C34.9659 -0.398531 35.2125 -0.435889 35.4889 -0.480723C35.9148 0.415918 35.8027 1.26025 35.2872 2.08964ZM34.4653 0.318777C34.4653 0.505579 34.4951 0.692381 34.4877 0.879179C34.4802 1.36486 34.2187 1.67121 33.7031 1.81318C33.3594 1.91031 32.8887 1.7011 32.6944 1.34244C32.5524 1.07345 32.4403 0.789514 32.3208 0.513048C32.2461 0.32625 32.2909 0.169344 32.388 -0.0324004C32.6197 -0.510611 32.7691 -1.02618 32.926 -1.43714C33.195 -1.19804 33.5088 -0.809496 33.9123 -0.600283C34.3308 -0.383593 34.4653 -0.0996536 34.4653 0.318777ZM30.9086 0.296358C29.9596 0.259001 29.1527 -0.981352 29.5263 -1.8481C29.5636 -1.93777 29.7056 -2.01248 29.8102 -2.04984C30.408 -2.25906 30.7143 -2.52059 31.0057 -3.11087C31.2598 -2.543 31.6558 -2.19181 32.2087 -2.04984C32.4329 -1.99754 32.5001 -1.87052 32.53 -1.66877C32.7019 -0.622694 31.9173 0.341192 30.9086 0.296358ZM32.8887 -2.42345C32.7766 -2.33378 32.5748 -2.29643 32.4254 -2.31884C31.7156 -2.41598 31.0954 -3.21548 31.1552 -3.94027C31.1626 -3.99257 31.1701 -4.07476 31.2 -4.09718C31.6707 -4.38859 31.7081 -4.91163 31.8725 -5.36742C32.2162 -5.05359 32.4777 -4.62022 33.0157 -4.62022C33.068 -4.62022 33.1278 -4.5455 33.1651 -4.4932C33.606 -3.86555 33.4864 -2.9166 32.8887 -2.42345ZM31.3046 -4.70989C31.2523 -4.59033 31.0954 -4.44837 30.9982 -4.44837C30.8936 -4.44837 30.7442 -4.59781 30.6844 -4.70989C30.2884 -5.5617 30.6097 -6.33878 30.9908 -7.19059C31.4017 -6.33131 31.7081 -5.5617 31.3046 -4.70989ZM30.804 -4.10465C30.8264 -4.0897 30.8413 -4.04487 30.8488 -4.01499C31.0281 -3.3425 30.1614 -2.30389 29.4665 -2.31137C29.0107 -2.31883 28.4428 -3.22295 28.5698 -3.7161C28.6296 -3.93279 28.6894 -4.14201 28.7566 -4.35123C28.8164 -4.52308 28.9434 -4.58286 29.1228 -4.65758C29.4515 -4.80702 29.728 -5.06854 30.0269 -5.28523C30.0642 -5.30764 30.0717 -5.36741 30.1165 -5.44961C30.2735 -4.90415 30.3332 -4.39606 30.804 -4.10465ZM28.936 -1.35495C29.0032 -1.41473 29.0406 -1.49692 29.1452 -1.63141C29.1228 -0.929045 29.3096 -0.37612 29.6981 0.102087C29.7429 0.154394 29.7504 0.26647 29.728 0.333719C29.5636 0.722265 29.4366 1.13323 29.205 1.47694C28.9509 1.85801 28.525 1.91779 28.0767 1.74593C27.7255 1.61891 27.4939 1.26773 27.5013 0.826879C27.5013 0.557886 27.5238 0.288889 27.5611 0.0198994C27.5985 -0.211733 27.6956 -0.361177 27.9422 -0.495672C28.3158 -0.712359 28.6147 -1.06354 28.936 -1.35495ZM27.2697 -0.361174C27.2398 0.0423145 27.195 0.445799 27.1875 0.85676C27.1726 1.41716 27.4939 1.8879 27.9571 2.03734C28.6745 2.26897 29.1751 2.14195 29.5263 1.57408C29.7504 1.20795 29.9148 0.804457 30.1091 0.408438C30.3407 0.498102 30.5873 0.587774 30.8264 0.677439C30.6844 1.94768 30.0045 2.62016 29.0107 2.93398C28.1962 3.18803 27.3818 2.9564 26.8363 2.25403C26.1937 1.43211 26.0294 0.513052 26.5076 -0.473253C26.784 -0.435892 27.0231 -0.398531 27.2697 -0.361174ZM25.2299 3.10584C25.5512 2.59774 25.7828 2.02987 26.0518 1.50683C26.1937 1.76835 26.3507 2.05976 26.5076 2.36611C26.53 2.41094 26.5449 2.47819 26.5225 2.52302C26.2535 3.1955 25.9098 3.8082 25.312 4.25652C24.8936 4.57035 23.8774 4.67496 23.4142 4.32377C22.9285 3.95764 22.6147 3.18055 22.7566 2.5006C22.8837 1.8879 23.1975 1.37233 23.5935 0.894121C23.6309 0.849287 23.7056 0.796988 23.7579 0.796988C24.0866 0.774573 24.4079 0.759627 24.804 0.737208C24.5873 0.998728 24.3855 1.21542 24.2137 1.462C24.0418 1.70857 23.8774 1.97009 23.7579 2.24656C23.5487 2.72477 23.6832 3.1955 24.0642 3.41966C24.4378 3.62888 24.9609 3.53174 25.2299 3.10584ZM24.9683 2.91156C24.7965 3.15067 24.535 3.30758 24.2361 3.12825C23.9372 2.95639 23.9521 2.65751 24.0568 2.38105C24.3855 1.53671 25.0132 0.946432 25.7678 0.45328C25.7529 1.36486 25.4989 2.18678 24.9683 2.91156ZM22.8837 1.30508C22.398 2.13447 22.2037 2.98628 22.652 3.91281C23.0705 4.77209 23.855 5.02614 24.7442 4.8244C25.723 4.60024 26.2461 3.8904 26.6421 3.04606C26.6794 2.97134 26.7093 2.89662 26.7467 2.8219C26.7616 2.79201 26.784 2.7696 26.799 2.74718C27.068 2.90409 27.322 3.061 27.591 3.21044C27.2697 4.95142 25.7155 5.79576 24.5873 5.7584C24.1912 5.74345 23.7952 5.71357 23.4067 5.64632C23.0181 5.57907 22.6595 5.40721 22.4353 5.07097C22.1215 4.60771 21.7404 4.15939 21.5611 3.64382C21.18 2.53796 21.3444 1.47694 22.1663 0.572829C22.2709 0.460749 22.3681 0.348665 22.4652 0.244059C22.7342 0.400973 22.9883 0.550413 23.2722 0.7148C23.1452 0.909071 23.0032 1.10333 22.8837 1.30508ZM26.2311 8.14197C26.7018 8.14944 27.2398 8.54546 27.3967 9.0162C27.6358 9.71856 27.3818 10.6675 26.8065 11.1308C26.6869 11.2279 26.5001 11.3325 26.3656 11.3101C25.9322 11.2428 25.4839 11.1681 25.0954 10.9888C24.647 10.7796 24.7068 10.2939 24.6919 9.92778C24.6993 8.85928 25.3419 8.1345 26.2311 8.14197ZM20.4552 10.802C20.8363 10.6301 21.1726 10.3387 21.5163 10.0922C21.591 10.0399 21.6284 9.94272 21.6956 9.84559C21.8973 10.2267 22.0692 10.548 22.2261 10.8693C22.2485 10.9216 22.2336 11.0336 22.1962 11.0785C21.7031 11.5791 21.195 12.0573 20.515 12.3113C19.4241 12.7148 18.393 12.1769 18.1688 11.0187C18.0194 10.2416 18.124 9.47946 18.4229 8.76962C18.8264 8.73973 19.2224 8.70984 19.6109 8.67995C19.5437 8.99378 19.454 9.3076 19.4241 9.62143C19.4017 9.84559 19.4241 10.0922 19.4839 10.3163C19.6109 10.7871 19.9995 11.0112 20.4552 10.802ZM21.6657 9.13575C21.6508 9.30013 21.591 9.4944 21.4864 9.61395C21.2697 9.85306 21.0306 10.0996 20.7467 10.2565C20.5449 10.3686 20.1863 10.4583 20.0443 10.3537C19.8724 10.2267 19.7753 9.88294 19.7828 9.64384C19.7902 9.31507 19.8575 8.94147 20.0368 8.67248C20.2161 8.40349 20.5599 8.23911 20.8438 8.04483C21.1651 7.8132 21.4939 7.59651 21.7479 7.42465C21.7255 7.92528 21.7105 8.53051 21.6657 9.13575ZM18.0792 8.67995C18.0268 8.8817 17.9671 9.09091 17.9148 9.30013C17.7205 10.0548 17.713 10.8169 18.0044 11.5417C18.4976 12.7522 19.4092 12.9913 20.7317 12.5355C21.0829 12.416 21.4117 12.2142 21.7105 11.9901C21.9945 11.7734 22.2186 11.4745 22.4727 11.2055C22.8463 11.5492 23.1751 11.8556 23.5188 12.1769C22.6445 13.4919 21.4042 14.1644 19.8724 14.3437C19.5287 14.3811 19.1775 14.3661 18.8338 14.3363C17.7877 14.2391 17.2124 13.5442 16.7716 12.6775C16.3158 11.7734 16.1364 10.8095 16.2709 9.8157C16.3382 9.29266 16.5474 8.78456 16.6894 8.26152C17.1975 8.41843 17.6159 8.54546 18.0792 8.67995ZM24.9534 13.9253C25.0879 14.6053 25.2149 15.3001 25.3569 15.995C25.5437 16.8917 25.5661 17.7734 25.2149 18.6476C24.9609 19.2678 24.5499 19.7535 23.982 20.0897C23.3768 20.4409 23.0181 20.3363 22.7043 19.7012C22.2934 18.8792 22.256 18.02 22.5848 17.1532C22.9285 16.2416 23.586 15.5467 24.2062 14.8369C24.4677 14.5231 24.7218 14.2092 24.9534 13.9253ZM18.0343 19.7684C18.8861 19.2528 19.7678 18.8045 20.6495 18.3413C20.9858 18.1619 21.3519 18.0274 21.7404 17.863C21.7629 18.9241 21.2323 19.6713 20.4851 20.3213C19.7529 20.9565 19.043 21.6289 18.3332 22.2865C18.2136 22.3986 18.1389 22.548 18.0044 22.7348C17.8176 22.2267 17.6234 21.756 17.4739 21.2778C17.2722 20.5978 17.4141 20.1495 18.0343 19.7684ZM19.2298 21.8008C19.7753 21.2927 20.3805 20.8369 20.926 20.3213C21.2772 19.9926 21.5536 19.5891 21.8749 19.208C22.0244 19.5368 22.2261 19.9104 22.3531 20.3139C22.3905 20.4259 22.2411 20.6277 22.1439 20.7622C21.6209 21.4048 21.0455 22.01 20.5673 22.69C20.0368 23.4446 19.8052 24.3413 19.723 25.2603C19.708 25.4471 19.7753 25.6489 19.8052 25.8431C19.7753 25.8581 19.7454 25.873 19.7155 25.888C19.3793 25.2379 19.0206 24.5953 18.7068 23.9378C18.2585 23.0337 18.5723 22.406 19.2298 21.8008ZM20.0667 25.3201C20.0443 24.7074 20.2759 24.0573 20.515 23.467C20.9036 22.4957 21.5536 21.6887 22.398 21.0611C22.9509 20.6501 23.3843 20.7697 23.6383 21.4122C24.1688 22.7497 24.2585 24.1096 23.855 25.4994C23.5561 26.5231 22.7865 27.1433 21.9571 27.7111C21.7255 27.8681 21.4565 27.9652 21.1875 28.1072C20.5001 27.2703 20.1115 26.3288 20.0667 25.3201ZM23.8475 26.3288C24.5275 24.9689 24.5574 23.5418 24.2062 22.0922C24.1315 21.7784 24.0119 21.4646 23.9671 21.1433C23.9447 21.0013 23.997 20.7921 24.0941 20.7024C24.4005 20.4409 24.7442 20.2242 25.1402 19.9477C24.9459 20.68 25.1701 21.2852 25.3868 21.8905C25.6035 22.4957 25.85 23.0934 26.0294 23.7136C26.3133 24.7149 26.0817 25.3052 25.2074 25.8656C24.6695 26.2093 24.1165 26.5306 23.5188 26.807C23.6234 26.6576 23.7579 26.5082 23.8475 26.3288ZM25.5362 21.3151C25.2747 20.4857 25.3494 19.7161 25.8127 18.8942C26.4702 19.8805 27.0904 20.8145 27.7106 21.7485C28.0169 22.2118 28.2112 22.7348 28.2336 23.2877C28.2411 23.482 28.0842 23.7286 27.9347 23.878C27.5238 24.2815 27.068 24.6476 26.5748 25.081C26.5524 23.6763 25.9173 22.533 25.5362 21.3151ZM26.53 19.4471C26.1116 18.9315 25.9098 18.3338 25.9098 17.6538C25.9098 17.2802 25.8426 16.9141 25.7903 16.4508C25.8874 16.5779 25.9322 16.6376 25.9696 16.6974C26.53 17.6613 27.3071 18.401 28.3083 18.8643C28.9883 19.1781 29.2199 19.6937 29.2423 20.3662C29.2797 21.2703 28.936 22.0847 28.5624 22.944C28.1215 21.5916 27.3818 20.4932 26.53 19.4471ZM30.3108 19.3051C29.1302 19.0361 28.0468 18.5206 27.1651 17.6837C26.3282 16.8992 25.7678 15.9203 25.5512 14.7846C25.454 14.2765 25.4839 13.7534 25.454 13.193C25.8874 13.193 26.2461 13.1781 26.6047 13.208C26.6794 13.2155 26.7915 13.3724 26.8065 13.4695C26.9858 15.218 27.9422 16.4658 29.3693 17.3774C30.4603 18.0797 31.596 18.0573 32.6795 17.3475C33.9796 16.5031 34.8613 15.3525 35.1527 13.7983C35.2648 13.1856 35.2797 13.1856 35.9074 13.1856C36.0942 13.1856 36.281 13.1856 36.4827 13.1856C36.7069 14.7995 36.1838 16.1221 35.1975 17.2877C34.2336 18.4309 32.9335 19.0137 31.5213 19.3425C31.1402 19.4396 30.6994 19.3948 30.3108 19.3051ZM37.0506 13.9328C37.6334 14.6351 38.2536 15.3226 38.8065 16.0548C39.606 17.1084 39.9049 18.274 39.3669 19.5442C38.9634 20.5007 38.3955 20.5081 37.5661 19.7385C36.4379 18.7074 36.3856 17.3848 36.6396 16.0025C36.7741 15.3151 36.9161 14.6202 37.0506 13.9328ZM33.4192 19.0362C34.5549 18.4533 35.5039 17.6912 36.1614 16.4733C36.1763 17.8107 35.9895 18.9614 35.0929 19.9627C34.3457 20.807 33.7704 21.8008 33.4491 22.9664C32.9858 21.8456 32.4852 20.7846 32.9335 19.5816C33.0082 19.3724 33.21 19.1482 33.4192 19.0362ZM33.9572 22.4359C34.4802 21.5243 35.0705 20.6501 35.6384 19.7684C35.8177 19.4919 36.0045 19.223 36.2062 18.9241C36.804 19.9178 36.6546 20.8817 36.2959 21.8606C35.997 22.6825 35.743 23.5268 35.4964 24.3637C35.4366 24.558 35.459 24.7747 35.4366 25.0885C34.8837 24.5879 34.3233 24.1844 33.8899 23.6613C33.5985 23.3251 33.7479 22.802 33.9572 22.4359ZM35.9298 23.9303C36.0792 23.3326 36.3333 22.7572 36.5051 22.1669C36.6695 21.614 36.8115 21.0461 36.931 20.4782C36.9609 20.3288 36.9011 20.157 36.8787 19.9627C37.2448 20.2242 37.5736 20.4484 37.8874 20.6875C38.1041 20.8518 38.0593 21.0685 37.992 21.2927C37.738 22.1819 37.5213 23.0785 37.5736 24.0125C37.611 24.7971 37.738 25.5742 38.1191 26.2765C38.2162 26.4559 38.3507 26.6202 38.4404 26.8593C38.0145 26.6053 37.5811 26.3662 37.1627 26.1047C36.8862 25.9328 36.6172 25.7385 36.3706 25.5293C35.8551 25.1109 35.7803 24.5281 35.9298 23.9303ZM37.9323 24.416C37.8426 23.3624 37.9995 22.3612 38.3731 21.3973C38.6197 20.7697 39.068 20.6352 39.5911 21.0536C40.8912 22.0847 41.7804 23.3849 41.9074 25.081C41.9896 26.2093 41.5114 27.1956 40.8314 28.1072C39.2175 27.36 38.0817 26.2989 37.9323 24.416ZM41.1153 22.1819C40.7492 21.6812 40.3084 21.2404 39.8825 20.7846C39.6658 20.553 39.5612 20.3587 39.748 20.0449C39.9123 19.7684 40.017 19.4546 40.1664 19.1183C40.3158 19.3724 40.4204 19.6414 40.5998 19.8282C41.0332 20.269 41.5114 20.665 41.9672 21.0835C42.3557 21.4347 42.7741 21.7709 43.1104 22.1669C43.4167 22.5331 43.6185 22.9739 43.4616 23.4969C43.1926 24.3637 42.7069 25.1109 42.2063 25.9478C42.408 24.4608 41.9074 23.2728 41.1153 22.1819ZM41.2424 20.0598C40.6072 19.477 40.2336 18.7597 40.2635 17.8556C41.5487 18.4533 42.8937 18.9241 44.0294 19.7908C44.5898 20.2242 44.7169 20.6127 44.5226 21.3076C44.4927 21.4197 44.4628 21.5318 44.418 21.6439C44.2835 21.9951 44.149 22.3388 43.9921 22.7348C43.2673 21.6065 42.1764 20.9116 41.2424 20.0598ZM40.1739 15.8904C38.8214 15.3076 37.6782 14.4932 37.1627 12.9988C37.5064 12.8045 37.8501 12.6102 38.1788 12.4234C38.5749 12.8269 38.941 13.2827 39.3893 13.6339C40.1664 14.2466 41.078 14.5828 42.0718 14.68C42.4678 14.7173 42.8713 14.7099 43.2598 14.665C44.5749 14.5156 45.2399 13.5891 45.6807 12.4832C46.2636 11.0411 46.2561 9.59154 45.5612 8.16438C45.9198 7.9477 46.2636 7.75342 46.6222 7.53673C47.1826 8.22416 47.5562 8.98631 47.6459 9.87547C47.7505 10.929 47.6683 11.9602 47.2125 12.9315C46.7567 13.8954 46.1365 14.7472 45.337 15.4496C44.6944 16.01 43.8576 16.0997 43.0655 16.1818C42.0867 16.279 41.0929 16.2865 40.1739 15.8904ZM46.8015 15.0835C46.6969 14.7397 46.7044 14.411 46.9286 14.0822C47.4367 13.3425 47.8103 12.5355 47.9448 11.6389C47.9971 11.3026 48.0195 10.9589 48.0568 10.5778C48.6621 11.736 49.1179 12.8344 48.8115 14.1793C48.5724 15.2404 48.6023 16.3612 48.9012 17.5044C47.9746 16.8319 47.1303 16.1818 46.8015 15.0835ZM49.1403 17.071C49.0656 16.279 49.0506 15.4869 49.073 14.6874C49.0954 14.015 49.2075 13.3425 49.2822 12.6551C50.0369 13.0212 50.4554 13.6713 50.6496 14.4483C50.8588 15.2852 50.9634 16.1445 51.1502 16.9813C51.2549 17.4297 51.4342 17.863 51.5911 18.3338C50.9634 18.2068 50.3134 18.1171 49.6932 17.9452C49.3047 17.8406 49.1702 17.4073 49.1403 17.071ZM52.697 18.2665C51.9647 18.1694 51.621 17.5941 51.4641 16.929C51.3296 16.3537 51.2623 15.7559 51.1502 15.1731C51.0158 14.5006 50.9186 13.8132 50.3732 13.208C50.8738 13.2453 51.2623 13.2304 51.6285 13.3201C51.7779 13.3574 51.9423 13.5965 51.9871 13.7759C52.3009 14.9265 52.6671 16.0474 53.4516 16.9739C53.9522 17.5642 54.4828 18.1246 55.2823 18.3338C55.2748 18.3711 55.2673 18.401 55.2598 18.4384C54.408 18.3786 53.5413 18.3711 52.697 18.2665ZM54.2063 17.3251C53.362 16.533 52.809 15.5393 52.5251 14.411C52.4429 14.0972 52.3831 13.7684 52.3682 13.4471C52.3532 12.9988 52.5998 12.7223 53.0407 12.7821C53.6683 12.8717 54.3034 13.0137 54.9012 13.2379C55.9398 13.6339 56.8439 14.269 57.3968 15.2553C57.7854 15.9427 57.9572 16.7273 57.8975 17.5417C57.8825 17.7734 57.8975 18.005 57.8975 18.2665C56.5226 18.3786 55.2374 18.2889 54.2063 17.3251ZM57.8975 15.6065C57.5687 14.5455 56.7468 13.9178 55.8651 13.3574C55.088 12.8568 54.2063 12.6102 53.3171 12.3861C53.0481 12.3188 52.8987 12.1694 52.8987 11.8705C52.8912 11.5343 52.8389 11.198 52.7941 10.7871C53.7729 11.5791 54.9386 11.4894 56.007 11.7509C56.2536 11.8107 56.5151 11.8481 56.7542 11.9303C57.5313 12.1843 57.9049 12.7671 57.9498 13.5368C57.9946 14.2391 57.9572 14.9415 57.9572 15.6439C57.9498 15.6364 57.9049 15.6289 57.8975 15.6065ZM54.5799 11.1831C53.9224 11.0785 53.3395 10.8394 52.8314 10.4209C52.5998 10.2267 52.428 9.95767 52.2038 9.69614C52.824 9.62142 53.3694 9.51682 53.9224 9.4944C54.7592 9.46451 55.6036 9.45704 56.4479 9.50187C56.7468 9.51682 57.0531 9.67373 57.3221 9.83064C57.6808 10.0399 57.6359 10.4583 57.7181 10.802C57.8153 11.2055 57.8526 11.6239 57.9199 12.0573C56.8663 11.482 55.7156 11.3549 54.5799 11.1831ZM52.3084 12.0349C52.2785 12.4683 52.0618 12.6924 51.621 12.7148C50.5824 12.7671 49.7605 12.3487 49.1029 11.5716C48.4753 10.8394 48.2137 9.93525 47.9074 9.05355C47.7729 8.65754 47.616 8.26152 47.4591 7.82067C48.5575 8.26899 49.6783 8.62765 50.7019 9.1731C51.7854 9.76339 52.3831 10.7348 52.3084 12.0349ZM53.8925 2.11206C53.9896 2.62016 53.9522 3.15814 53.9074 3.67371C53.8252 4.67496 53.1154 5.19052 52.3159 5.60896C51.4192 6.07969 50.4554 6.25155 49.4541 6.12453C48.9236 6.05728 48.408 5.84806 47.87 5.69862C48.0269 5.18305 48.154 4.76462 48.2661 4.38355C48.8713 4.4508 49.4541 4.54793 50.0444 4.58529C50.7692 4.63012 51.4043 4.36113 51.9348 3.87545C52.3682 3.47943 52.3682 2.93398 52.3233 2.41094C52.2561 1.61144 51.8974 0.931485 51.3146 0.378556C51.1502 0.221646 50.9933 0.0721977 50.8289 -0.0847122C51.1577 -0.44337 51.4715 -0.772132 51.7854 -1.11584C52.9809 -0.353698 53.6309 0.767098 53.8925 2.11206ZM51.8825 1.88043C52.2785 3.24033 51.8377 4.0249 50.3134 4.264C49.6185 4.36861 49.073 4.24158 48.3333 3.95764C48.3333 3.77084 48.3408 3.5691 48.3333 3.37483C48.3184 3.18056 48.281 2.98628 48.2586 2.83684C48.7368 2.8742 49.2075 2.95639 49.6783 2.94892C50.3283 2.94145 50.6496 2.45577 50.3732 1.86548C50.1639 1.42463 49.8426 1.02862 49.5662 0.617658C49.8651 0.47569 50.2088 0.303834 50.5674 0.131978C51.1204 0.610184 51.6658 1.13323 51.8825 1.88043ZM49.2598 2.62016C48.9311 2.57533 48.5873 2.50807 48.281 2.37358C48.1017 2.29139 47.9672 2.08217 47.8476 1.90284C47.5413 1.45452 47.2573 0.991261 47.0257 0.640077C47.4665 0.662492 48.0568 0.699853 48.6471 0.714799C49.215 0.729741 50.0444 1.57407 50.0294 2.14195C50.022 2.4483 49.6708 2.67993 49.2598 2.62016ZM47.9821 3.29264C48.0494 3.68118 47.9746 4.11456 47.885 4.5031C47.6982 5.29513 47.4068 6.05728 46.9286 6.72229C46.4205 7.43213 45.6583 7.78331 44.8663 8.04483C44.3956 8.20175 43.8949 8.32129 43.4018 8.39601C42.8414 8.48568 42.3183 8.28394 41.8102 8.0523C40.8389 7.59651 40.144 6.85678 39.606 5.9452C39.479 5.72851 39.4864 5.61643 39.6583 5.4371C40.2262 4.83934 40.7343 4.17433 40.8613 3.33747C40.936 2.83685 40.8762 2.31381 40.8762 1.72352C41.5114 2.32875 42.1091 2.88915 42.6994 3.44955C42.8414 3.58405 42.819 3.71106 42.7442 3.88292C42.1614 5.18305 42.9983 6.84184 44.7393 6.88667C45.606 6.90909 46.7044 5.69862 46.4354 4.66749C46.1141 3.40472 44.8738 2.79948 43.88 3.01617C43.7305 3.04606 43.5736 3.08342 43.4466 3.16561C43.2822 3.27022 43.1627 3.23286 43.0506 3.11331C42.4902 2.52302 41.9298 1.93273 41.347 1.32003C41.8102 1.32003 42.2287 1.36485 42.6396 1.30508C43.0282 1.25277 43.4317 1.15564 43.7679 0.968839C44.2536 0.692376 44.6795 0.318772 45.1353 -0.00252047C45.21 -0.0548276 45.3594 -0.0772428 45.4342 -0.0398816C46.7642 0.692376 47.7131 1.75341 47.9821 3.29264ZM44.2237 3.27769C45.0307 3.26275 46.0095 4.25653 46.002 5.07845C45.9946 5.61643 45.1876 6.40846 44.6496 6.40099C43.8277 6.39352 42.8713 5.42963 42.8862 4.62265C42.9012 3.95764 43.5662 3.28516 44.2237 3.27769ZM44.5525 0.0871478C43.5886 0.879182 42.5051 1.26773 41.2872 0.86424C40.7642 0.69238 40.3009 0.311307 39.8003 0.0124296C40.0095 -0.353701 40.1664 -0.615222 40.271 -0.802024C40.8464 -0.555445 41.4142 -0.241618 42.0195 -0.069762C43.0506 0.229116 44.3059 -0.4882 44.4479 -1.39231C44.5973 -2.3562 44.2909 -3.15571 43.5064 -3.73852C43.1552 -4.00004 42.7517 -4.20178 42.3632 -4.43342C42.4977 -4.67252 42.6546 -4.93405 42.8115 -5.20304C44.4628 -4.90416 45.3819 -3.44711 45.3594 -2.19181C45.352 -1.80327 45.3221 -1.40726 45.2548 -1.01871C45.1801 -0.555449 44.9111 -0.211734 44.5525 0.0871478ZM42.0942 -4.14201C42.946 -3.77588 43.7903 -3.37987 44.0817 -2.40103C44.418 -1.26529 43.7679 -0.458312 42.6695 -0.346232C41.7953 -0.256568 41.1153 -0.697417 40.4728 -1.20551C40.4354 -1.2354 40.4055 -1.30265 40.398 -1.35495C40.3756 -1.68372 40.3681 -2.00502 40.3457 -2.37862C40.7343 -2.07973 41.063 -1.80327 41.4217 -1.56416C41.6085 -1.43714 41.8401 -1.33253 42.0643 -1.29517C42.5873 -1.20551 42.931 -1.39231 43.0954 -1.81821C43.2224 -2.13951 43.073 -2.61772 42.6919 -2.85683C42.3109 -3.09593 41.885 -3.26778 41.474 -3.46953C41.3395 -3.5293 41.1975 -3.57414 41.0481 -3.63391C41.3769 -3.81324 41.6832 -3.97763 41.997 -4.14201C42.0195 -4.14201 42.0643 -4.14948 42.0942 -4.14201ZM40.3532 -2.90166C40.2262 -3.04362 40.1141 -3.20801 39.9647 -3.40975C40.9285 -3.38734 41.7505 -3.1034 42.4902 -2.58783C42.7069 -2.4384 42.8488 -2.21423 42.7667 -1.92282C42.677 -1.61647 42.3557 -1.49692 41.9447 -1.6613C41.2947 -1.92282 40.809 -2.40103 40.3532 -2.90166ZM39.9497 -2.4608C40.1141 -1.75096 40.1515 -1.06354 39.6658 -0.420951C38.6197 0.96137 36.7218 0.565355 35.8849 -0.540503C35.8401 -0.600279 35.87 -0.749724 35.9223 -0.824442C36.0269 -0.981356 36.1614 -1.10838 36.3034 -1.27276C36.5798 -1.06355 36.8414 -0.846854 37.1253 -0.660052C37.7156 -0.264037 38.276 -0.323813 38.7617 -0.734774C39.4043 -1.2877 39.2996 -1.99754 38.9858 -2.4608C38.7915 -2.75221 38.5674 -3.02121 38.3582 -3.30514C38.545 -3.46206 38.7318 -3.63391 38.9559 -3.82072C39.4117 -3.46953 39.8152 -3.05857 39.9497 -2.4608ZM37.2075 -3.43217C37.0356 -3.49194 36.8414 -3.52183 36.677 -3.59656C36.0493 -3.88049 36.1016 -3.88797 36.124 -4.56045C36.139 -4.97888 35.9821 -5.41225 35.8999 -5.84563C36.4603 -5.77091 36.9534 -6.04737 37.4092 -6.45086C37.4615 -6.49569 37.5811 -6.52558 37.6409 -6.49569C38.3881 -6.16692 39.0755 -5.50939 38.8663 -4.50067C38.7542 -3.92532 37.7978 -3.22295 37.2075 -3.43217ZM33.1875 -5.62147C33.2174 -5.49444 33.2249 -5.36742 33.2174 -5.2404C33.195 -4.99382 33.0232 -4.88921 32.8065 -5.01624C32.6122 -5.13579 32.388 -5.27029 32.2685 -5.45709C31.9173 -6.00254 31.6857 -6.6003 31.7529 -7.3475C32.4403 -6.87676 33.0082 -6.4135 33.1875 -5.62147ZM34.1365 -6.39109C33.464 -6.47328 33.0082 -6.90665 32.5898 -7.39233C32.4852 -7.51188 32.4105 -7.66133 32.2685 -7.86307C33.1801 -7.8556 33.9422 -7.66879 34.4877 -6.98137C34.5773 -6.86929 34.6595 -6.60777 34.6072 -6.56294C34.5026 -6.45086 34.2934 -6.36867 34.1365 -6.39109ZM29.7056 -7.81824C29.2498 -7.13829 28.7566 -6.57788 27.9497 -6.40603C27.8376 -6.38361 27.7106 -6.3612 27.5985 -6.39109C27.3967 -6.44339 27.2473 -6.57042 27.3893 -6.80205C27.5013 -6.98885 27.6284 -7.18312 27.7928 -7.32509C28.1813 -7.66133 29.1302 -7.9079 29.7056 -7.81824ZM29.7728 -7.00379C29.8924 -7.1084 30.0418 -7.19059 30.2585 -7.34003C30.251 -6.40603 30.0568 -5.63642 29.3469 -5.09096C29.2423 -5.00876 29.0032 -4.94151 28.9509 -5.00129C28.8463 -5.10589 28.7641 -5.30764 28.7865 -5.44961C28.8538 -6.12209 29.2797 -6.59283 29.7728 -7.00379ZM26.2236 -5.83816C25.8351 -5.2927 25.7753 -4.74724 25.9322 -4.16443C25.9546 -4.08971 25.9023 -3.95521 25.8426 -3.91038C25.0281 -3.33503 24.2734 -3.16318 23.5262 -3.85807C22.9584 -4.38111 22.9135 -5.26282 23.4665 -5.86805C23.6906 -6.11462 23.982 -6.30889 24.2734 -6.48075C24.3556 -6.53305 24.5649 -6.48822 24.6545 -6.4135C25.2523 -5.92782 25.4465 -5.8531 26.2236 -5.83816ZM23.6607 -3.31261C23.459 -3.04362 23.2348 -2.7821 23.0555 -2.49816C22.4577 -1.55669 22.8388 -0.929045 23.6084 -0.473253C23.9596 -0.264036 24.393 -0.346231 24.7517 -0.577864C25.0729 -0.787077 25.3793 -1.02618 25.7081 -1.25781C25.8725 -1.05607 26.0294 -0.869272 26.1937 -0.68247C25.8052 0.0871449 24.7292 0.572828 23.728 0.460749C22.9733 0.378557 22.0767 -0.458311 21.9721 -1.20551C21.8376 -2.25907 22.114 -3.1557 23.0704 -3.80576C23.2647 -3.64885 23.459 -3.48447 23.6607 -3.31261ZM20.2834 -1.76591C19.8351 -1.51187 19.3942 -1.56416 19.2373 -1.85557C19.0953 -2.12457 19.2597 -2.48323 19.7006 -2.7298C20.4104 -3.12582 21.1576 -3.41723 22.0169 -3.40228C21.5611 -2.70739 20.9858 -2.16193 20.2834 -1.76591ZM20.9036 -3.65632C20.388 -3.40228 19.8351 -3.17064 19.327 -2.86429C18.9384 -2.63266 18.789 -2.15445 18.9011 -1.84063C19.0879 -1.34001 19.5885 -1.1009 20.1115 -1.34748C20.5225 -1.53428 20.8812 -1.82569 21.2622 -2.07973C21.3967 -2.1694 21.5088 -2.27401 21.6657 -2.40103C21.6433 -2.01249 21.6284 -1.67624 21.6134 -1.34C21.6134 -1.29517 21.591 -1.24287 21.5536 -1.22045C20.8288 -0.652578 20.0742 -0.189317 19.0804 -0.391061C17.6308 -0.68247 17.586 -2.26654 18.2734 -3.07351C18.6993 -3.57414 19.2448 -3.87302 19.8351 -4.11213C19.8948 -4.13454 19.992 -4.13453 20.0518 -4.10465C20.3432 -3.95521 20.6346 -3.79829 20.9036 -3.65632ZM18.1016 -3.34997C17.3843 -2.67749 17.2796 -1.44462 17.855 -0.749723C18.4004 -0.0996566 19.1476 0.139452 19.9472 -0.0548226C20.5599 -0.20426 21.1203 -0.533033 21.718 -0.78708C21.8376 -0.585336 21.987 -0.338758 22.1364 -0.0847108C21.0679 1.22289 19.1103 1.32002 17.9596 0.445799C17.4814 0.0796723 16.9434 -0.211732 16.7865 -0.846853C16.4129 -2.34125 16.5922 -3.49942 17.7803 -4.56045C18.1464 -4.88922 18.6769 -5.03866 19.1476 -5.27029C19.2523 -5.06854 19.327 -4.92658 19.4092 -4.78461C19.4839 -4.65758 19.5736 -4.53056 19.6109 -4.48573C19.1028 -4.10465 18.5574 -3.77588 18.1016 -3.34997ZM16.9434 0.049788C17.4216 0.542941 17.982 0.968844 18.6395 1.1407C19.2597 1.30508 19.9247 1.29761 20.5972 1.37233C20.0592 1.9402 19.4988 2.53796 18.9235 3.12825C18.8637 3.18803 18.6844 3.20297 18.5947 3.16561C17.317 2.60521 15.6433 3.24033 15.5163 5.11581C15.4714 5.73598 15.8749 6.25155 16.4129 6.58032C17.1526 7.02864 18.109 6.91656 18.7217 6.3711C19.3494 5.8107 19.6782 4.74221 19.2523 3.86051C19.1701 3.68866 19.185 3.57657 19.2971 3.46449C19.8874 2.90409 20.4777 2.3437 21.0978 1.76088C21.0978 2.23162 21.068 2.65752 21.1053 3.07595C21.1352 3.40472 21.195 3.77085 21.3594 4.04731C21.6508 4.54794 22.0094 5.01867 22.3681 5.47446C22.5026 5.64632 22.5325 5.75093 22.4054 5.92278C22.1215 6.29638 21.8899 6.70734 21.576 7.05105C20.8961 7.79078 20.0443 8.25405 19.0505 8.40349C18.6844 8.46327 18.2734 8.39602 17.8998 8.29888C17.1153 8.09714 16.3531 7.8132 15.6881 7.34247C14.9783 6.83437 14.6271 6.07222 14.3581 5.28766C14.1937 4.81693 14.0891 4.32377 13.9994 3.83062C13.9023 3.25528 14.1115 2.72477 14.3581 2.2092C14.8139 1.23784 15.5536 0.550414 16.4652 0.0124307C16.6669 -0.122068 16.779 -0.122068 16.9434 0.049788ZM18.5574 3.58404C19.1402 4.03983 19.2448 4.70485 18.8787 5.39974C18.5947 5.93773 18.109 6.22166 17.5561 6.3711C17.3469 6.42341 17.048 6.36363 16.8687 6.24408C16.4652 5.96014 16.0542 5.64632 15.987 5.0635C16.114 4.38355 16.4353 3.81568 17.0779 3.48691C17.5785 3.22539 18.0866 3.21044 18.5574 3.58404ZM14.1713 1.90284C14.0144 2.17183 13.8425 2.41841 13.5063 2.45577C13.1402 2.5006 12.774 2.58279 12.4154 2.56785C12.0343 2.54544 11.8998 2.26897 12.0194 1.91779C12.251 1.21542 12.9085 0.737212 13.6408 0.72227C14.1265 0.714797 14.6121 0.662493 14.9783 0.640078C14.7392 1.00621 14.4403 1.44705 14.1713 1.90284ZM12.4826 0.640078C12.251 0.931487 11.9969 1.21541 11.7877 1.52924C11.5561 1.87295 11.4066 2.26897 11.6682 2.65004C11.9147 3.0087 12.3481 2.99376 12.7292 2.97881C13.058 2.96387 13.3867 2.85926 13.7304 2.79201C13.7006 3.18056 13.6781 3.57657 13.6483 3.98006C12.8413 4.27147 11.9969 4.44333 11.1526 4.15192C9.97949 3.74096 9.77028 3.05354 10.1514 1.79824C10.368 1.0884 10.906 0.602717 11.4291 0.13198C11.7877 0.303836 12.1389 0.475695 12.4826 0.640078ZM10.1065 1.15564C9.78522 1.64879 9.62831 2.21667 9.64326 2.8219C9.66567 3.77085 10.368 4.32378 11.317 4.53299C12.124 4.71232 12.9235 4.60771 13.7155 4.30136C13.8575 4.7721 13.9845 5.198 14.1265 5.65379C13.3419 6.00498 12.5573 6.24408 11.6831 6.15441C10.7192 6.05728 9.83753 5.8107 9.0455 5.22041C8.17127 4.57035 7.91722 3.69612 8.05172 2.6874C8.13391 2.08964 8.2983 1.49935 8.49257 0.931479C8.79892 0.0497846 9.45646 -0.570386 10.2111 -1.11584C10.525 -0.779603 10.8313 -0.443368 11.1302 -0.122071C10.7865 0.296363 10.4054 0.699847 10.1065 1.15564ZM15.4639 18.274C15.4714 18.274 15.4789 18.274 15.4639 18.274V18.274ZM15.449 18.289C15.4042 18.9166 15.3593 19.5293 15.3145 20.142C15.307 20.2167 15.2921 20.3288 15.2473 20.3512C14.8363 20.5455 14.4253 20.7248 13.9471 20.934C13.9023 20.4409 13.8649 20.0299 13.8351 19.6115C13.8276 19.5442 13.8575 19.4396 13.9023 19.4023C14.4104 19.0212 14.9334 18.6551 15.449 18.289ZM12.1987 19.873C12.6246 19.8058 13.043 19.7086 13.454 19.6264C13.5436 20.157 13.6258 20.6949 13.7304 21.3301C14.3058 21.1059 14.7989 20.9116 15.322 20.7024C15.4789 21.1731 15.6433 21.6588 15.8151 22.1893C14.7317 22.5928 13.6557 22.9963 12.5125 23.4222C12.378 22.6302 12.251 21.9129 12.124 21.1956C12.0717 20.8743 12.0194 20.553 11.9745 20.2317C11.9596 20.0523 11.967 19.9104 12.1987 19.873ZM13.0654 23.5567C14.0293 23.2354 14.9783 22.8543 15.9646 22.4882C16.241 23.0038 16.5324 23.5418 16.8388 24.1096C14.911 24.6999 13.0206 25.2753 11.1152 25.8581C10.6744 23.9378 10.2261 22.01 9.77028 20.015C10.4054 20.015 11.0032 20.015 11.6159 20.015C11.7803 20.9863 11.9521 22.0175 12.1464 23.0411C12.3033 23.9079 12.2286 23.8332 13.0654 23.5567ZM9.70303 28.3014C9.00066 25.5069 8.31324 22.7572 7.61087 19.9776C8.26841 19.9776 8.82881 19.9776 9.41162 19.9776C9.71798 21.2852 10.0243 22.5629 10.3157 23.8332C10.4727 24.5281 10.6221 25.223 10.7641 25.9253C10.8164 26.1943 10.9359 26.2691 11.2049 26.1794C12.7815 25.6788 14.3581 25.1931 15.9347 24.7074C16.1663 24.6327 16.4278 24.6177 16.6445 24.5131C16.9882 24.3487 17.1676 24.5057 17.317 24.7821C17.5113 25.1333 17.7056 25.477 17.9596 25.9478C15.195 26.7323 12.4826 27.5094 9.70303 28.3014ZM23.0107 28.563C22.2261 29.0038 21.4416 29.4521 20.6944 29.878C20.2012 29.0412 19.6856 28.1445 19.1476 27.2554C18.3855 25.9851 17.5935 24.7373 16.8612 23.4596C16.5026 22.8319 16.2186 22.1595 15.9347 21.4944C15.4714 20.4035 15.5163 19.2827 15.9048 18.1993C16.1663 17.4596 16.5848 16.7721 16.9359 16.0474C17.2572 16.1445 17.5337 16.2267 17.8027 16.3163C17.6084 16.7422 17.3843 17.1308 17.2498 17.5418C16.7417 19.0436 16.7641 20.5306 17.3768 22.0175C18.1016 23.7883 19.0953 25.3948 20.0891 27.0088C20.3581 27.4422 20.6495 27.8681 20.8961 28.3164C21.0082 28.5107 21.0904 28.5331 21.2772 28.421C22.6968 27.629 24.1165 26.8369 25.5437 26.0524C26.6346 25.4546 27.606 24.7074 28.4578 23.8033C29.0256 23.1981 29.3768 22.4807 29.6159 21.6663C29.8177 20.9863 29.9895 20.3213 29.9297 19.5442C30.2436 19.6264 30.5051 19.6862 30.7442 19.746C30.9758 21.3898 30.7293 22.9141 29.728 24.2441C29.1228 25.0362 28.3009 25.5966 27.4341 26.0823C25.9696 26.9341 24.4827 27.741 23.0107 28.563ZM31.2822 28.5107C32.0219 27.6215 32.7766 26.7398 33.5313 25.8431C34.0319 26.157 34.5475 26.4783 35.0854 26.807C33.7255 28.2641 32.3806 29.7062 31.0057 31.1782C29.6533 29.7286 28.3009 28.279 26.926 26.807C27.4416 26.4857 27.9646 26.157 28.4877 25.8282C29.0705 26.538 29.6458 27.2404 30.2212 27.9428C30.4005 28.1595 30.5798 28.3762 30.7816 28.5779C30.9684 28.7722 31.1253 28.6975 31.2822 28.5107ZM31.0057 28.3836C30.2361 27.4496 29.5038 26.5605 28.7566 25.6563C29.1751 25.2753 29.5412 24.954 29.9223 24.6103C30.1913 24.9465 30.4677 25.2827 30.7367 25.6265C30.9235 25.8656 31.0954 25.8506 31.2747 25.619C31.5362 25.2827 31.8127 24.9465 32.0817 24.6028C32.4628 24.9465 32.8364 25.2827 33.2473 25.6489C32.5076 26.5455 31.7828 27.4272 31.0057 28.3836ZM30.9982 25.5069C30.7068 25.1034 30.4528 24.7597 30.2137 24.4011C30.1763 24.3487 30.1838 24.2441 30.2062 24.1844C30.4752 23.5941 30.7517 23.0038 31.0057 22.4583C31.2598 23.0337 31.5362 23.6688 31.8351 24.3562C31.5885 24.6925 31.3121 25.0735 30.9982 25.5069ZM34.2112 30.6925C33.2399 31.7012 32.261 32.695 31.2971 33.7037C31.1178 33.8905 30.9609 33.9652 30.7517 33.7485C29.8625 32.8369 28.9659 31.9403 28.0842 31.0287C27.068 29.9752 26.0742 28.9067 25.0356 27.8083C25.5213 27.5318 25.9546 27.2778 26.403 27.0536C26.4926 27.0088 26.6869 27.0536 26.7616 27.1283C28.0543 28.5032 29.332 29.893 30.6097 31.2828C30.9758 31.6788 31.0281 31.6788 31.3943 31.2828C32.276 30.3189 33.1651 29.3699 34.0468 28.4135C34.4279 28.0026 34.8164 27.5991 35.1826 27.1732C35.332 26.9938 35.474 26.9639 35.6683 27.076C36.0717 27.3077 36.4827 27.5393 36.9684 27.8232C36.0269 28.8021 35.1228 29.751 34.2112 30.6925ZM43.469 26.2466C42.7517 27.4795 42.0045 28.69 41.2947 29.8706C39.6658 28.944 37.9771 27.9876 36.2884 27.0312C35.3694 26.5082 34.4428 26.0075 33.5537 25.4397C32.0817 24.4982 31.3793 23.0636 31.1626 21.3674C31.1253 21.0611 31.2 20.7398 31.2149 20.4259C31.2224 20.2167 31.1103 19.888 31.2 19.8282C31.4316 19.6787 31.738 19.6414 32.0443 19.5592C32.0667 19.9328 32.0593 20.269 32.1116 20.6053C32.3806 22.4807 33.337 23.9453 34.8762 25.0212C35.6832 25.5816 36.5201 26.0972 37.3644 26.6053C38.0593 27.0237 38.7766 27.3973 39.4864 27.7859C39.9049 28.0175 40.3233 28.2417 40.7567 28.4434C40.8389 28.4808 41.0332 28.4285 41.0705 28.3537C42.139 26.5679 43.2299 24.7896 44.2237 22.9664C44.7542 21.9951 45.1054 20.9116 45.1278 19.7834C45.1353 19.3051 44.9784 18.8195 44.9261 18.3338C44.8439 17.6165 44.5749 16.9814 44.1415 16.3388C44.4553 16.2416 44.7243 16.1594 44.9858 16.0847C45.8451 17.2653 46.4279 18.5355 46.3756 20.0374C46.3532 20.807 46.1515 21.5318 45.7928 22.1893C45.0456 23.5567 44.2611 24.9017 43.469 26.2466ZM46.5475 18.2889C46.8015 18.4832 47.0705 18.7074 47.3545 18.9166C47.5487 19.066 47.7505 19.208 47.9672 19.3201C48.1316 19.4097 48.2137 19.4994 48.1913 19.6937C48.139 20.0822 48.1017 20.4708 48.0494 20.9266C47.601 20.7323 47.1976 20.553 46.7941 20.3662C46.7418 20.3438 46.7119 20.2391 46.7044 20.1644C46.6446 19.5442 46.5923 18.9166 46.5475 18.2889ZM49.7679 23.4745C49.9771 22.3014 50.2013 21.1358 50.4105 20C50.9933 20 51.5836 20 52.2337 20C51.7779 21.9876 51.337 23.9154 50.8887 25.8581C49.0058 25.2827 47.1004 24.6999 45.1652 24.1096C45.464 23.5492 45.748 23.0187 46.0394 22.4807C46.7567 22.7572 47.4591 23.0337 48.1764 23.2952C48.5948 23.4521 49.0207 23.5866 49.4466 23.7136C49.6484 23.7734 49.7306 23.6837 49.7679 23.4745ZM54.3931 19.9702C53.6982 22.7423 53.0108 25.492 52.3084 28.2865C49.5363 27.4795 46.7717 26.8444 44.0593 25.8805C44.3582 25.3649 44.6272 24.8867 44.9111 24.401C45.3893 24.5281 45.8377 24.6252 46.2636 24.7597C47.7206 25.208 49.1702 25.6713 50.6197 26.1271C51.1353 26.2915 51.1278 26.284 51.2474 25.7385C51.5463 24.4085 51.8601 23.0785 52.1664 21.741C52.2785 21.2404 52.4055 20.7398 52.5176 20.2391C52.555 20.0523 52.6297 19.9552 52.8389 19.9552C53.3246 19.9776 53.8103 19.9702 54.3931 19.9702ZM49.8501 19.888C49.9248 19.9029 50.0294 20.0598 50.022 20.1271C49.8576 21.1956 49.6783 22.2641 49.4915 23.4222C48.3482 22.9963 47.2648 22.5928 46.1888 22.1893C46.3532 21.6588 46.5101 21.1806 46.6596 20.6949C47.1677 20.8967 47.6683 21.091 48.2661 21.3301C48.3632 20.7024 48.4454 20.1719 48.535 19.6264C48.9609 19.7086 49.4093 19.7834 49.8501 19.888ZM59.2051 15.0909C59.1901 16.3089 59.1602 17.5343 59.1528 18.7522C59.1528 19.0362 59.2051 19.3276 59.235 19.5966C57.7704 19.5966 56.3059 19.5816 54.8489 19.604C53.9672 19.619 53.078 19.7385 52.1963 19.7012C50.8962 19.6489 49.5512 19.731 48.3333 19.1333C47.3171 18.6327 46.4578 17.9378 45.9423 16.8842C45.7704 16.5405 45.5612 16.2117 45.3819 15.9054C45.5761 15.6887 45.7704 15.4795 45.9721 15.2553C46.2486 15.6439 46.4653 16.0548 46.7717 16.3761C47.6085 17.2503 48.5201 18.02 49.7605 18.3039C51.0681 18.6102 52.3831 18.7149 53.7206 18.6999C54.9909 18.685 56.2611 18.67 57.5313 18.6476C57.7032 18.6476 57.8825 18.6177 58.0544 18.5804C58.1142 18.5654 58.1889 18.4907 58.2038 18.4234C58.2412 18.274 58.2487 18.1246 58.2561 17.9677C58.2785 16.3612 58.3234 14.7472 58.3084 13.1407C58.2935 11.863 58.144 10.6003 57.6808 9.40473C57.4267 8.75467 57.0681 8.17185 56.5077 7.72353C56.3059 7.55915 56.1714 7.3051 55.9697 7.13325C55.6334 6.86425 55.2748 6.63262 54.8788 6.35616C55.1104 6.15441 55.3122 5.97508 55.5811 5.74345C56.1939 6.16188 56.9112 6.5579 57.5239 7.08094C58.4579 7.88792 59.0108 8.934 59.1602 10.1818C59.2873 11.2279 59.3396 12.274 59.235 13.3275C59.1677 13.9178 59.2125 14.5081 59.2051 15.0909ZM63.0083 9.86053C62.3732 9.98755 61.7979 10.1071 61.215 10.2042C60.7817 10.279 60.3333 10.3238 59.9 10.406C59.6384 10.4508 59.489 10.4433 59.4591 10.1071C59.4218 9.71856 59.2947 9.33002 59.2051 8.94147C59.7655 8.85181 60.296 8.76214 60.8937 8.66501C60.7742 8.32877 60.6995 8.07472 60.6023 7.82814C60.5052 7.58157 60.3856 7.33499 60.2661 7.066C60.7667 6.90161 61.2449 6.75217 61.7754 6.57285C62.1864 7.65629 62.5824 8.72479 63.0083 9.86053ZM62.0967 6.43088C62.5899 6.16188 63.1353 5.87048 63.7032 5.56413C64.2935 7.4919 64.8688 9.38232 65.4517 11.2877C63.5164 11.736 61.5961 12.1768 59.6384 12.6326C59.6086 11.99 59.5712 11.3998 59.5413 10.7945C60.4828 10.6376 61.4243 10.4882 62.3657 10.3238C62.5749 10.2864 62.7767 10.2117 62.9859 10.1893C63.3147 10.1594 63.3819 10.01 63.2773 9.71856C62.8813 8.64259 62.5002 7.55915 62.0967 6.43088ZM59.8103 7.08841C59.8701 7.09588 59.9448 7.14819 59.9672 7.20049C60.154 7.59651 60.3259 8.00747 60.5276 8.45579C60.0793 8.50063 59.7132 8.53051 59.3545 8.56787C59.1378 8.59029 59.0108 8.51557 58.8838 8.32129C58.5924 7.88792 58.2561 7.48443 57.9348 7.066C57.9049 7.02116 57.8825 6.96886 57.8676 6.94645C58.5176 6.99128 59.1602 7.03611 59.8103 7.08841ZM67.8801 12.7074C65.093 13.4097 62.3583 14.0972 59.5712 14.7921C59.5712 14.2018 59.5637 13.7011 59.5787 13.2005C59.5787 13.1109 59.6982 12.9689 59.7804 12.9539C61.6484 12.5131 63.5089 12.0797 65.3844 11.6613C65.8552 11.5567 65.8776 11.5417 65.7281 11.0635C65.235 9.46451 64.7344 7.87297 64.2412 6.27397C64.1665 6.02739 64.0768 5.78081 64.0544 5.52677C64.0469 5.39974 64.159 5.22041 64.2711 5.14569C64.6372 4.90659 65.0183 4.71232 65.4666 4.45827C66.4454 7.16314 67.0731 9.93525 67.8801 12.7074ZM60.6023 -7.42969C60.1465 -7.51188 59.6758 -7.54924 59.1827 -7.60902C59.2275 -7.81824 59.2648 -8.05734 59.3396 -8.2815C59.362 -8.35622 59.4965 -8.43094 59.5787 -8.43841C59.9523 -8.46083 60.3333 -8.4982 60.692 -8.44589C61.2972 -8.35623 61.9099 -8.24414 62.5002 -8.06481C63.8751 -7.63891 64.7568 -6.61525 65.4442 -5.43467C66.3931 -3.80577 67.2898 -2.13951 68.2163 -0.495674C68.6347 0.244057 69.0606 0.983787 69.4641 1.68616C68.6048 2.19425 67.7007 2.72476 66.8041 3.26275C65.5488 4.01742 64.3084 4.80198 63.0382 5.53424C62.0743 6.09464 61.0731 6.58779 59.9448 6.73723C59.22 6.8269 58.5027 6.75217 57.8377 6.49065C57.0905 6.19924 56.3881 5.8107 55.6409 5.45952C55.7381 5.12328 55.8203 4.86175 55.9024 4.58529C55.9846 4.61518 56.0743 4.61518 56.1266 4.66001C56.7617 5.16064 57.5463 5.25777 58.2935 5.42216C59.4143 5.66873 60.4903 5.4371 61.5513 5.02614C63.4342 4.30136 65.1154 3.20297 66.8265 2.16436C67.1926 1.9402 67.5513 1.69363 67.9174 1.47694C68.0743 1.3798 68.1341 1.32003 68.022 1.12576C67.5438 0.266476 67.1179 -0.615227 66.6248 -1.46703C66.0494 -2.47575 65.4741 -3.48447 64.8165 -4.44089C64.2487 -5.27028 63.6061 -6.06979 62.7169 -6.59283C62.2686 -6.85435 61.7605 -7.01126 61.2823 -7.20553C61.0731 -7.28025 60.8414 -7.38486 60.6023 -7.42969ZM58.6596 -6.25659C58.9062 -6.75721 59.4292 -6.85435 59.9 -6.83193C60.4903 -6.80952 61.0731 -6.66008 61.6484 -6.52558C61.9398 -6.45833 62.2088 -6.30889 62.418 -6.2267C61.6783 -5.81574 60.9087 -5.41972 60.169 -4.96393C59.6982 -4.67999 59.2798 -4.31387 58.8389 -3.99257C58.3757 -3.65633 57.8526 -3.52931 57.2848 -3.51437C56.9037 -3.49942 56.5301 -3.44712 56.149 -3.40976C57.2997 -4.10465 58.0843 -5.08348 58.6596 -6.25659ZM60.7144 -4.94152C61.3495 -5.35248 61.9921 -5.76344 62.7916 -5.83069C63.1055 -5.85311 63.2997 -5.7485 63.4865 -5.53928C63.8676 -5.1059 64.2487 -4.66505 64.6746 -4.17937C63.4641 -4.14948 62.4554 -3.71611 61.4317 -3.30515C60.7667 -3.04362 60.0868 -2.90166 59.3769 -3.04362C59.078 -3.1034 58.7941 -3.26031 58.4878 -3.37239C59.2574 -3.91785 59.9672 -4.45584 60.7144 -4.94152ZM59.1528 -2.20676C59.4143 -1.93777 59.616 -1.609 59.8103 -1.28023C59.9971 -0.97388 59.8626 -0.712356 59.6086 -0.518085C58.8987 0.0199017 58.0992 0.124501 57.2474 -0.0398822C56.3433 -0.219211 55.6409 -0.772132 54.9535 -1.34C54.4603 -1.74349 53.9971 -2.17687 53.5488 -2.57289C54.4379 -2.73727 55.3645 -2.97638 56.3059 -3.07352C57.3445 -3.1856 58.3682 -3.02121 59.1528 -2.20676ZM47.5487 -8.22173C47.5786 -8.30392 47.6758 -8.43841 47.743 -8.43094C48.154 -8.40853 48.5575 -8.35622 48.9609 -8.31886C49.8725 -8.2292 50.6048 -7.74352 51.2997 -7.19806C51.7704 -6.82446 52.017 -6.29395 52.1664 -5.74102C52.3159 -5.18062 52.4055 -4.5978 52.4728 -4.02246C52.5849 -3.05857 52.2113 -2.22917 51.6359 -1.48944C51.1428 -0.854324 50.6347 -0.234153 49.88 0.102086C49.5587 0.251527 49.2001 0.348664 48.8489 0.393498C47.6832 0.542939 46.6222 0.199227 45.6359 -0.391063C45.5612 -0.435893 45.5313 -0.622691 45.5388 -0.742244C45.5836 -1.31759 45.6882 -1.89294 45.6882 -2.46828C45.6882 -3.11088 45.3893 -3.6638 45.0232 -4.17937C44.9261 -4.31386 44.8364 -4.44089 44.7019 -4.63517C45.5836 -4.41848 46.4055 -4.23168 47.2125 -4.00752C47.3096 -3.97763 47.4068 -3.78335 47.4217 -3.65633C47.5712 -2.70738 48.1241 -2.05732 49.0282 -1.84811C50.276 -1.5567 51.479 -2.21423 51.4491 -3.76094C51.4342 -4.67999 50.8514 -5.14326 50.1639 -5.4272C49.4765 -5.71114 48.7293 -5.59158 48.1017 -5.1059C48.012 -5.03118 47.885 -4.9714 47.8401 -4.87427C47.6309 -4.411 47.3246 -4.47825 46.9286 -4.62022C46.2785 -4.84438 45.606 -5.00876 44.8513 -5.22545C45.0381 -5.30764 45.1428 -5.35995 45.2548 -5.39731C46.555 -5.89046 47.1378 -6.98138 47.5487 -8.22173ZM48.8115 -5.06107C49.5438 -5.20304 50.4778 -4.8668 50.7916 -4.34376C51.1129 -3.80577 50.8738 -3.29768 50.6646 -2.80452C50.4479 -2.28895 49.9547 -2.29642 49.4915 -2.29642C48.6397 -2.29642 47.9821 -2.74475 47.7953 -3.43964C47.601 -4.15696 48.0867 -4.9191 48.8115 -5.06107ZM40.002 -7.71363C40.0319 -7.78088 40.0767 -7.87054 40.1216 -7.96768C40.3457 -8.47578 40.3383 -8.44589 40.8987 -8.30392C41.7804 -8.0947 42.7442 -6.85435 42.6097 -5.94277C42.5126 -5.28523 42.3034 -4.70988 41.7131 -4.32881C40.8762 -3.79082 40.0767 -3.71611 39.1278 -4.11213C39.1652 -4.38859 39.2025 -4.63516 39.2399 -4.88174C39.6434 -4.85185 40.0468 -4.80702 40.4503 -4.79955C41.0257 -4.78461 41.5039 -5.11337 41.6459 -5.59158C41.8551 -6.31636 41.7206 -6.80952 41.1527 -7.15323C40.8015 -7.36992 40.4055 -7.52683 40.002 -7.71363ZM39.7181 -7.32509C39.7554 -7.35498 39.8376 -7.36244 39.8825 -7.34003C40.3084 -7.15323 40.7642 -7.01126 41.1303 -6.74227C41.4889 -6.48075 41.5338 -6.04737 41.3246 -5.62894C41.1378 -5.25534 40.809 -5.09095 40.4055 -5.1059C40.1141 -5.11337 39.8227 -5.15073 39.5388 -5.18809C39.337 -5.21798 39.2249 -5.31511 39.1128 -5.52433C38.9036 -5.89046 38.5823 -6.18934 38.2984 -6.51064C38.2237 -6.59283 38.1191 -6.64513 37.9547 -6.75721C38.6645 -6.75721 39.2399 -6.89918 39.7181 -7.32509ZM35.4964 -8.38611C35.5263 -8.43094 35.6234 -8.44589 35.6832 -8.44589C36.4154 -8.48325 37.1701 -7.89296 37.2897 -7.18312C37.3569 -6.77216 37.058 -6.57041 36.7816 -6.38361C36.3258 -6.06978 35.5338 -6.10715 35.0929 -6.44339C35.0481 -6.47328 34.9958 -6.51811 34.9808 -6.56294C34.7268 -7.25036 34.7268 -7.25036 34.2262 -7.72857C34.7044 -7.88548 35.205 -7.93032 35.4964 -8.38611ZM24.7218 -7.19059C24.8338 -7.90043 25.5885 -8.49072 26.3282 -8.45336C26.3955 -8.45336 26.4926 -8.43094 26.515 -8.39358C26.8065 -7.93031 27.3071 -7.89296 27.7853 -7.74352C27.4416 -7.38486 27.0231 -7.12335 27.0231 -6.57789C27.0231 -6.52558 26.941 -6.47328 26.8886 -6.43592C26.2535 -6.00254 25.2747 -6.13704 24.8189 -6.74227C24.7292 -6.8394 24.6993 -7.04115 24.7218 -7.19059ZM22.5698 -7.14576C22.9733 -6.89918 23.4665 -6.81699 23.9297 -6.66008C23.3992 -6.39856 23.0256 -5.93529 22.8015 -5.35995C22.7865 -5.32259 22.7417 -5.27775 22.7043 -5.26281C22.1738 -5.12831 21.6358 -4.97887 21.0978 -5.21798C20.7168 -5.38236 20.5748 -5.71861 20.5673 -6.09968C20.5524 -6.46581 20.7765 -6.7348 21.0754 -6.92907C21.2398 -7.03368 21.4415 -7.08598 21.6134 -7.18312C21.9422 -7.35497 22.2112 -7.36992 22.5698 -7.14576ZM20.926 -8.24414C21.7031 -8.54302 21.7105 -8.52808 21.987 -7.70616C21.6059 -7.52683 21.2099 -7.36992 20.8587 -7.15323C20.2684 -6.7871 20.134 -6.28647 20.3656 -5.56169C20.5225 -5.08348 20.9858 -4.77713 21.5835 -4.79208C21.9795 -4.79955 22.3681 -4.84438 22.7641 -4.87427C22.8015 -4.62769 22.8388 -4.38859 22.8837 -4.09718C22.398 -3.91038 21.8824 -3.75347 21.3444 -3.88797C20.5748 -4.08224 19.9098 -4.41847 19.5661 -5.22545C18.9907 -6.57788 19.9397 -7.86307 20.926 -8.24414ZM9.53865 -4.19431C9.62831 -4.85932 9.78522 -5.52434 9.99444 -6.16693C10.2186 -6.84688 10.7566 -7.27278 11.3469 -7.67627C12.2435 -8.2815 13.2448 -8.36369 14.261 -8.43841C14.3207 -8.44588 14.4328 -8.31886 14.4552 -8.2292C14.7616 -7.33256 15.0978 -6.45086 15.9048 -5.87552C16.2635 -5.62147 16.6744 -5.44214 17.1003 -5.20304C16.4577 -5.01624 15.8226 -4.82943 15.1875 -4.64264C15.0978 -4.61275 15.0007 -4.60528 14.9185 -4.56792C14.642 -4.42595 14.4552 -4.45583 14.261 -4.73977C13.6258 -5.65882 11.9745 -5.83068 11.0629 -4.91163C10.2261 -4.06729 10.4801 -2.69991 11.2423 -2.15445C11.9521 -1.64636 13.0131 -1.50439 13.8649 -2.31136C14.2535 -2.67749 14.5299 -3.09593 14.5748 -3.64139C14.5972 -3.9029 14.7317 -4.00004 14.9857 -4.05235C15.7404 -4.21673 16.4801 -4.41847 17.2572 -4.62022C17.0032 -4.18684 16.7566 -3.81324 16.5549 -3.41722C16.2261 -2.77463 16.2709 -2.07974 16.3382 -1.38484C16.3382 -1.36242 16.3531 -1.34001 16.3606 -1.31759C16.5474 -0.406007 16.5474 -0.406003 15.6881 -0.0174612C14.7167 0.415915 13.723 0.542941 12.6694 0.311309C11.8475 0.13198 11.2871 -0.406003 10.7566 -0.996293C10.525 -1.25781 10.3232 -1.54923 10.1215 -1.83316C9.61337 -2.53553 9.42657 -3.34251 9.53865 -4.19431ZM14.246 -3.64885C14.1937 -3.08098 13.85 -2.69991 13.3568 -2.47575C13.0878 -2.3562 12.7815 -2.31884 12.4901 -2.24412C11.4963 -2.29643 10.8836 -3.04362 11.0704 -4.02245C11.1601 -4.49319 11.5636 -4.69494 11.9297 -4.88921C12.4677 -5.18062 13.0355 -5.21051 13.5735 -4.90416C14.0517 -4.63516 14.2983 -4.20178 14.246 -3.64885ZM6.99069 -2.84935C7.49132 -2.75969 7.99941 -2.66255 8.48509 -2.56541C7.7902 -1.99007 7.0953 -1.36989 6.35557 -0.802022C5.37674 -0.0398759 4.27088 0.251537 3.05295 -0.144482C2.79143 -0.226674 2.55232 -0.398534 2.33564 -0.570389C2.13389 -0.727303 2.0517 -0.951459 2.16378 -1.22792C2.58968 -2.31136 3.44896 -2.81946 4.5324 -3.03615C5.36927 -3.20801 6.17625 -2.99132 6.99069 -2.84935ZM0.654435 -3.26778C-0.204846 -3.57414 -1.07907 -3.83565 -1.94582 -4.10465C-2.1401 -4.16442 -2.36426 -4.15696 -2.63325 -4.18684C-2.26712 -4.62769 -1.91594 -5.05359 -1.57222 -5.4795C-1.13138 -6.01748 -0.541087 -5.91287 -0.0778224 -5.6663C0.848707 -5.17315 1.71546 -4.56792 2.59716 -4.00752C2.88856 -3.82071 3.1725 -3.6115 3.47885 -3.40228C2.5598 -2.83441 1.62579 -2.92407 0.654435 -3.26778ZM2.4776 -6.79457C2.88109 -6.71238 3.20986 -6.548 3.40413 -6.14451C3.95706 -5.00876 4.73415 -4.07476 5.94461 -3.43964C5.79517 -3.41723 5.72792 -3.40228 5.66068 -3.40228C5.2796 -3.43964 4.89853 -3.48447 4.50999 -3.51436C3.9197 -3.56667 3.38919 -3.77588 2.9334 -4.14948C1.89479 -5.00877 0.78893 -5.73355 -0.526143 -6.18187C0.452689 -6.6003 1.40163 -7.01126 2.4776 -6.79457ZM-4.85991 -2.93154C-4.29203 -3.94026 -3.72416 -4.95646 -3.11146 -5.94276C-2.16998 -7.45958 -0.727887 -8.22173 1.00562 -8.44589C1.49877 -8.51313 2.00687 -8.46083 2.50749 -8.44589C2.5598 -8.44589 2.63451 -8.37863 2.64946 -8.32633C2.71671 -8.07975 2.76901 -7.83318 2.82132 -7.60155C2.38047 -7.54924 1.96203 -7.5343 1.5436 -7.45211C-0.0628784 -7.15323 -1.35554 -6.3612 -2.36426 -5.0536C-3.38792 -3.73105 -4.18743 -2.274 -4.9944 -0.81696C-5.34559 -0.17437 -5.68183 0.483169 -6.03301 1.12576C-6.13015 1.29762 -6.10773 1.3798 -5.93588 1.48441C-5.18867 1.9402 -4.45642 2.43335 -3.70175 2.8742C-2.69302 3.46449 -1.67683 4.06225 -0.63075 4.58529C0.37797 5.08592 1.43152 5.48941 2.58221 5.51182C3.04548 5.5193 3.50874 5.42963 3.96453 5.35491C4.33066 5.29514 4.69679 5.20547 5.04797 5.07845C5.39169 4.95142 5.71298 4.75715 6.08658 4.57782C6.17625 4.8767 6.25097 5.13822 6.33316 5.40721C5.51871 5.81817 4.8014 6.39352 3.85992 6.61021C2.57474 6.90162 1.36427 6.77459 0.213586 6.1843C-0.638223 5.75093 -1.46014 5.24283 -2.28954 4.75715C-3.49253 4.04731 -4.68805 3.32253 -5.89104 2.62016C-6.42903 2.29887 -6.98943 2.00745 -7.47511 1.73099C-6.60836 0.191757 -5.7416 -1.37737 -4.85991 -2.93154Z" fill="white" fill-opacity="0.06"/>
</g>
<rect width="62" height="19.3029" transform="translate(0 42.6973)" fill="#824FD4"/>
<path d="M18.5651 53.9007H17.1676L17.0385 53.6813C17.0758 53.5816 17.1178 53.4805 17.1209 53.3715C17.1365 52.7644 17.2128 50.8343 16.8735 50.4311C16.3677 49.9252 15.3546 50.0155 15.2083 50.7844C15.0481 51.6312 15.3142 52.8033 15.1897 53.6595C15.1741 53.7715 15.1352 53.8354 15.0434 53.8992H13.6459V51.0537C13.6459 50.979 13.4389 50.4544 13.3611 50.3735C13.0545 50.0544 12.3107 50.0715 11.9745 50.3237C11.9278 50.3595 11.7162 50.7377 11.7162 50.7627V53.8976H10.1755V48.8823H11.7177L11.766 49.3648C12.6546 48.4558 14.105 48.6628 14.8551 49.6528H14.9469C15.7608 48.4636 17.7668 48.4978 18.3924 49.8754C18.4235 49.9454 18.5651 50.3517 18.5651 50.3782V53.8976V53.9007Z" fill="white"/>
<path d="M22.9704 53.8215V53.2424C22.7292 53.3981 22.53 53.6285 22.2514 53.7296C18.4091 55.1306 18.185 47.4317 22.3619 48.884L22.9704 49.2871L22.9828 48.8653L23.1276 48.7205L24.5188 48.7516L24.6106 48.9493C24.5126 50.4188 24.7351 52.0376 24.6138 53.4884C24.6013 53.6347 24.6029 53.7327 24.4644 53.8215H22.9704ZM21.59 50.0794C20.8368 50.2491 20.6205 51.471 21.0407 52.0376C21.5542 52.7303 22.6638 52.6058 22.9268 51.801C23.2381 50.853 22.6576 49.8366 21.59 50.0794Z" fill="white"/>
<path d="M30.7289 47.229V53.8834H29.1867V53.2079C28.4538 53.9457 27.1932 54.1761 26.3435 53.4958C24.5259 52.0404 25.4036 48.3373 28.0569 48.7934C28.4973 48.8697 28.8413 49.1981 29.1867 49.4471V47.229H30.7289ZM27.8095 50.1429C26.7528 50.3266 26.6906 52.0871 27.6414 52.4841C29.4264 53.2297 29.8699 49.7849 27.8095 50.1429Z" fill="white"/>
<path d="M31.4634 48.8856H33.0071L33.0554 49.6561C33.4942 49.1253 33.9331 48.8233 34.6458 48.7891V50.4282C34.2257 50.4048 33.3806 50.4048 33.1768 50.8391C33.1472 50.9014 33.0071 51.3185 33.0071 51.345V53.9009H31.6097L31.4649 53.7562V48.8856H31.4634Z" fill="white"/>
<path d="M39.1156 53.8863V53.2107C38.5304 53.7727 38.0745 53.9735 37.2434 53.8785C35.1067 53.6326 34.7473 50.138 36.4793 49.0795C37.3835 48.5269 38.3888 48.7231 39.1156 49.45V48.871H40.6593V53.8863H39.1171H39.1156ZM37.7368 50.1442C36.6303 50.3809 36.6879 52.2643 37.7632 52.5897C38.2612 52.7406 39.0331 52.2316 39.1125 51.7117C39.2541 50.7716 38.781 49.9201 37.7383 50.1442H37.7368Z" fill="white"/>
<path d="M45.7307 50.4975H44.285L44.0905 50.0648C43.8617 49.8655 43.4042 49.8811 43.1241 49.9605C42.8922 50.3574 43.0245 50.5177 43.3917 50.6672C44.2492 51.0174 45.586 50.9551 45.7276 52.1911C45.9906 54.4855 41.5538 54.4419 41.3936 52.2331H42.9358L43.0525 52.5989C43.331 52.7437 43.9924 52.8215 44.1947 52.5771L44.2772 52.2969C43.6096 51.5513 41.7748 51.8798 41.5896 50.6391C41.2177 48.1486 45.6187 48.0879 45.7323 50.4975H45.7307Z" fill="white"/>
<path d="M50.281 53.8592V53.1837C49.2025 54.2811 47.5794 54.1098 46.8262 52.7338C45.7742 50.8145 47.1872 47.9613 49.5776 48.9217L50.2825 49.4229V48.8439H51.8247V53.7145L51.68 53.8592H50.2825H50.281ZM48.8057 50.1172C47.6556 50.3771 47.8766 52.6342 49.1543 52.5781C50.7821 52.5081 50.5673 49.7187 48.8057 50.1172Z" fill="white"/>
<path d="M15.5535 23.3614L14.792 20.6011C16.5321 20.2776 19.4145 18.3855 19.7953 16.5999C20.2129 14.6506 18.8904 13.2254 18.5916 11.4644L21.2201 10.4487C25.1998 15.8136 21.8752 22.4931 15.5494 23.3614H15.5535Z" fill="white"/>
<path d="M34.1333 18.6158C34.8743 19.4472 36.6308 19.4431 37.3268 18.5257C38.4569 17.035 38.678 15.2085 40.4181 14.0045C44.1276 11.4326 48.443 16.0276 46.879 19.9591C45.6425 23.0593 41.9371 22.6088 39.4764 21.2573C37.3924 22.6457 34.7065 22.9241 32.6716 21.2901C30.6981 22.6498 28.4175 22.7153 26.1329 22.1788C25.6907 22.0764 24.098 21.6996 24.1962 21.1345L25.1912 18.6896C26.4932 19.2506 30.9315 19.9468 30.4074 17.6657C30.1085 16.3593 27.9712 13.5294 27.9672 12.9725C27.9672 12.5793 29.8055 11.3261 30.1331 11.3179C30.956 11.3016 32.5692 14.5778 32.9213 15.3928C33.2734 16.2078 33.6133 18.0384 34.1333 18.6199V18.6158ZM42.0845 16.4289C39.8121 18.6814 41.327 19.525 43.9679 19.0786C44.7417 18.5708 43.8 16.7197 43.0221 16.4412L42.0845 16.4289Z" fill="white"/>
<path d="M45.6942 23.6763C46.6605 27.0385 48.331 32.2233 43.9254 33.7017C42.4269 34.2054 39.3848 34.3856 38.8443 32.555H38.4677C38.2343 32.6574 38.1852 33.0792 38.0091 33.2348C36.617 34.4798 32.5841 34.402 31.6178 32.555C30.0865 34.2832 26.7824 34.4511 24.7516 33.5829C23.9573 33.243 23.0647 32.1291 22.6512 31.3673C21.9265 30.0322 21.7995 27.4849 19.4739 28.7791C17.6069 29.8193 18.4012 31.4001 18.8066 33.0587C17.9222 33.0014 16.3336 34.2136 15.8054 33.1447C13.574 28.6234 17.6438 24.737 22.1762 25.5069C25.3739 26.0475 24.3299 30.2329 26.594 30.7285C29.976 31.4697 30.1234 29.4261 30.4755 26.7191L33.5217 27.231C33.2678 27.9231 32.8912 29.9176 33.317 30.4786L35.8882 30.7407C37.2148 30.3517 37.0224 26.629 37.7266 26.4898L40.3715 26.9812C40.2978 28.2712 39.3684 29.9749 40.7933 30.7448C41.7309 30.8349 42.7995 30.9619 43.5488 30.2903C44.3799 29.0125 42.2713 24.7615 42.6562 24.4544L45.6901 23.6886L45.6942 23.6763Z" fill="white"/>
</g>
<defs>
<linearGradient id="paint0_linear_631_4561" x1="8.70728" y1="-19.6176" x2="57.2267" y2="59.22" gradientUnits="userSpaceOnUse">
<stop stop-color="#5724A9"/>
<stop offset="1" stop-color="#421984"/>
</linearGradient>
<clipPath id="clip0_631_4561">
<rect width="62" height="62" rx="12" fill="white"/>
</clipPath>
<clipPath id="clip1_631_4561">
<rect width="41.4383" height="67.2802" fill="white" transform="translate(-2.64014 32.731) rotate(-90)"/>
</clipPath>
</defs>
</svg>
