<svg width="84" height="42" viewBox="0 0 84 42" fill="none" xmlns="http://www.w3.org/2000/svg">
<path d="M17.3894 41.453H14.5989L14.341 41.0148C14.4155 40.8159 14.4994 40.614 14.5057 40.3964C14.5367 39.1845 14.689 35.3313 14.0116 34.5265C13.0017 33.5166 10.9787 33.6968 10.6866 35.2319C10.3666 36.9223 10.8979 39.2622 10.6493 40.9713C10.6183 41.1951 10.5406 41.3225 10.3572 41.4499H7.56677V35.7695C7.56677 35.6203 7.15348 34.5731 6.99811 34.4115C6.38595 33.7745 4.9006 33.8087 4.22939 34.3121C4.13617 34.3836 3.71356 35.1387 3.71356 35.1884V41.4468H0.637207V31.4346H3.71667L3.813 32.3979C5.58734 30.5832 8.48346 30.9965 9.98124 32.9728H10.1646C11.7898 30.5987 15.7952 30.6671 17.0444 33.4172C17.1066 33.557 17.3894 34.368 17.3894 34.4209V41.4468V41.453Z" fill="#8A57DC"/>
<path d="M41.8379 28.1685V41.4527H38.7585V40.1041C37.2949 41.577 34.7778 42.0369 33.0812 40.679C29.4517 37.7735 31.2043 30.3809 36.5025 31.2914C37.3819 31.4437 38.0686 32.0994 38.7585 32.5965V28.1685H41.8379ZM36.0084 33.9856C33.8984 34.3522 33.7741 37.8667 35.6728 38.6591C39.237 40.1476 40.1226 33.2709 36.0084 33.9856Z" fill="#8A57DC"/>
<path d="M26.438 41.4529V40.2969C25.9564 40.6076 25.5586 41.0675 25.0024 41.2695C17.3301 44.0662 16.8827 28.6969 25.223 31.5961L26.438 32.4009L26.4629 31.5588L26.7519 31.2698L29.5299 31.332L29.7132 31.7266C29.5175 34.66 29.9618 37.8917 29.7194 40.7879C29.6946 41.08 29.6977 41.2757 29.4211 41.4529H26.438ZM23.6817 33.9826C22.1777 34.3213 21.7458 36.7606 22.5848 37.8917C23.6102 39.2745 25.8258 39.026 26.351 37.4194C26.9725 35.527 25.8134 33.4978 23.6817 33.9826Z" fill="#8A57DC"/>
<path d="M80.9205 41.4529V40.1042C78.7671 42.295 75.5261 41.9532 74.0221 39.2062C71.9214 35.3747 74.743 29.6788 79.516 31.5961L80.9237 32.5967V31.4407H84.0031V41.1639L83.7141 41.4529H80.9237H80.9205ZM77.9747 33.9826C75.6783 34.5016 76.1196 39.0073 78.6708 38.8955C81.9211 38.7556 81.4923 33.1871 77.9747 33.9826Z" fill="#8A57DC"/>
<path d="M58.588 41.4529V40.1042C57.4196 41.226 56.5091 41.6269 54.8498 41.4373C50.5833 40.9463 49.8655 33.9702 53.324 31.8571C55.1294 30.754 57.1368 31.1455 58.588 32.5967V31.4407H61.6706V41.4529H58.5911H58.588ZM55.8348 33.9826C53.6254 34.4549 53.7404 38.2149 55.8877 38.8644C56.882 39.1658 58.4233 38.1497 58.5818 37.1118C58.8646 35.2349 57.9199 33.5351 55.8379 33.9826H55.8348Z" fill="#8A57DC"/>
<path d="M72.064 34.7128H69.1772L68.7887 33.849C68.3319 33.4512 67.4184 33.4823 66.859 33.6408C66.396 34.4332 66.6602 34.7532 67.3935 35.0515C69.1057 35.7507 71.775 35.6264 72.0578 38.0937C72.5829 42.674 63.7236 42.587 63.4036 38.1776H66.483L66.7161 38.9078C67.2723 39.1968 68.593 39.3522 68.9969 38.8643L69.1616 38.305C67.8285 36.8165 64.1649 37.4722 63.7951 34.9956C63.0524 30.0237 71.8402 29.9025 72.0671 34.7128H72.064Z" fill="#8A57DC"/>
<path d="M43.9573 31.4407H47.0398L47.1362 32.9789C48.0125 31.9193 48.8888 31.3164 50.312 31.248V34.5202C49.473 34.4736 47.7856 34.4736 47.3786 35.3405C47.3195 35.4648 47.0398 36.2976 47.0398 36.3504V41.4528H44.2494L43.9604 41.1639V31.4407H43.9573Z" fill="#8A57DC"/>
<path d="M52.8101 23.3554C52.6423 22.2181 52.2694 21.2081 52.4683 20.0273C53.6802 12.8709 65.9732 13.337 67.8283 6.41368C66.9707 6.50069 65.9949 6.0874 65.417 5.45349C65.2429 5.26393 65.0627 5.18314 65.1342 4.8724C65.5506 4.85375 65.7681 5.18314 66.1969 5.24839C69.7984 5.7953 70.392 0.636972 66.865 0.441204C67.5114 -0.394695 68.9719 0.114924 69.6586 0.633864C72.0109 2.41442 70.9668 6.23966 68.021 6.41057C68.5959 8.20045 70.0657 9.77592 71.6163 10.8045C75.1587 13.1537 82.8403 15.071 83.4059 19.9994C83.5364 21.1367 83.322 22.2305 83.2287 23.3523H52.8101V23.3554Z" fill="#8A57DC"/>
<path d="M83.8102 23.9336H52.2356V29.903H83.8102V23.9336Z" fill="#8A57DC"/>
<path d="M23.1596 18.9272C23.8929 21.4784 25.1608 25.4124 21.8172 26.5342C20.6798 26.9164 18.371 27.0532 17.9609 25.6641H17.675C17.4978 25.7418 17.4606 26.0619 17.3269 26.18C16.2704 27.1246 13.2096 27.0656 12.4762 25.6641C11.3141 26.9755 8.80637 27.1029 7.26508 26.4441C6.66224 26.1862 5.98482 25.341 5.67097 24.763C5.12096 23.75 5.02463 21.8172 3.25961 22.7991C1.84262 23.5884 2.44546 24.7879 2.7531 26.0464C2.08189 26.0029 0.876212 26.9227 0.475354 26.1116C-1.21819 22.681 1.87059 19.7321 5.31051 20.3163C7.73741 20.7264 6.94502 23.9022 8.66343 24.2782C11.2302 24.8407 11.342 23.2901 11.6093 21.2361L13.9212 21.6245C13.7285 22.1496 13.4427 23.663 13.7658 24.0887L15.7173 24.2876C16.7241 23.9924 16.578 21.1677 17.1125 21.062L19.1199 21.4349C19.064 22.4138 18.3586 23.7065 19.44 24.2907C20.1516 24.359 20.9626 24.4554 21.5313 23.9457C22.1621 22.9762 20.5618 19.7507 20.8539 19.5177L23.1565 18.9366L23.1596 18.9272Z" fill="#8A57DC"/>
<path d="M39.5824 23.8805C40.1448 24.5113 41.4779 24.5082 42.0062 23.8121C42.8638 22.681 43.0316 21.2951 44.3523 20.3815C47.1676 18.4301 50.4428 21.9166 49.2558 24.8997C48.3174 27.2521 45.5051 26.9102 43.6376 25.8848C42.0559 26.9382 40.0174 27.1495 38.473 25.9097C36.9753 26.9413 35.2444 26.991 33.5105 26.584C33.1749 26.5063 31.9661 26.2204 32.0407 25.7916L32.7958 23.9364C33.7839 24.3622 37.1524 24.8904 36.7546 23.1596C36.5278 22.1683 34.9057 20.0211 34.9026 19.5985C34.9026 19.3002 36.2978 18.3493 36.5464 18.3431C37.171 18.3306 38.3953 20.8166 38.6626 21.435C38.9298 22.0533 39.1877 23.4424 39.5824 23.8836V23.8805ZM45.617 22.2211C43.8924 23.9302 45.0421 24.5704 47.0464 24.2316C47.6337 23.8463 46.919 22.4418 46.3286 22.2305L45.617 22.2211Z" fill="#8A57DC"/>
<path d="M24.9093 30.2726L24.3313 28.1782C25.652 27.9327 27.8396 26.4971 28.1286 25.1422C28.4455 23.6631 27.4418 22.5817 27.215 21.2455L29.21 20.4749C32.2304 24.5456 29.7071 29.6138 24.9062 30.2726H24.9093Z" fill="#8A57DC"/>
</svg>
