<svg width="203" height="77" viewBox="0 0 203 77" fill="none" xmlns="http://www.w3.org/2000/svg">
	<title>Ummah placeholder</title>
	<path d="M193.788 46.8586C198.525 46.8586 202.509 50.1424 202.509 57.1409V75.9289H194.864V57.8407C194.864 54.6107 193.357 53.0495 190.827 53.0495C187.866 53.0495 185.443 55.4182 184.098 58.7559V75.9289H176.399V38.2451H184.098V55.795C185.39 50.6808 188.458 46.8586 193.788 46.8586Z" fill="#6D2DD3"/>
	<path d="M172.14 69.038L173.001 75.3904C171.763 76.1979 169.341 76.4671 167.941 76.4671C163.096 76.4671 159.651 73.0217 159.651 69.5225V68.392C157.659 73.8293 154.16 76.4671 150.014 76.4671C144.9 76.4671 141.616 73.5601 141.616 69.038C141.616 64.6775 144.846 61.2321 150.176 61.2321C153.029 61.2321 156.313 62.3088 159.651 64.839V57.9482C159.651 54.2875 157.659 52.2418 154.267 52.2418C150.714 52.2418 148.076 54.9335 147.484 59.4017L141.509 56.4947C142.531 50.8421 147.269 46.8584 154.536 46.8584C161.804 46.8584 167.349 50.9498 167.349 57.9482V68.5535C167.349 69.7917 167.995 70.5454 169.179 70.5454C170.256 70.5454 171.548 69.7917 172.14 69.038ZM153.244 70.976C155.559 70.976 157.928 69.5764 159.651 66.6693V66.1848C157.497 64.8928 155.344 64.3545 153.675 64.3545C150.66 64.3545 149.261 65.9156 149.261 67.7998C149.261 69.7379 150.876 70.976 153.244 70.976Z" fill="#6D2DD3"/>
	<path d="M127.505 46.8584C132.404 46.8584 136.28 50.3038 136.28 57.0869V75.9288H128.582V57.7867C128.582 54.6105 127.128 53.0493 124.598 53.0493C121.637 53.0493 119.107 55.5795 117.815 58.8634V75.9288H110.17V57.8405C110.17 54.8258 108.663 53.0493 106.133 53.0493C103.172 53.0493 100.696 55.5257 99.4036 58.7557V75.9288H91.7053V47.3967H96.7119L99.1344 56.9254C100.319 51.2728 103.387 46.8584 109.094 46.8584C113.562 46.8584 117.33 49.7654 117.761 55.9025C119.107 50.7883 122.175 46.8584 127.505 46.8584Z" fill="#6D2DD3"/>
	<path d="M76.1944 46.8584C81.0933 46.8584 84.9694 50.3038 84.9694 57.0869V75.9288H77.2711V57.7867C77.2711 54.6105 75.8176 53.0493 73.2874 53.0493C70.3265 53.0493 67.7963 55.5795 66.5043 58.8634V75.9288H58.8599V57.8405C58.8599 54.8258 57.3525 53.0493 54.8223 53.0493C51.8614 53.0493 49.3851 55.5257 48.0931 58.7557V75.9288H40.3948V47.3967H45.4014L47.8239 56.9254C49.0082 51.2728 52.0768 46.8584 57.7832 46.8584C62.2514 46.8584 66.0198 49.7654 66.4505 55.9025C67.7963 50.7883 70.8648 46.8584 76.1944 46.8584Z" fill="#6D2DD3"/>
	<path d="M17.2209 76.4673C6.83094 76.4673 0.80153 71.4607 0.80153 61.6091V38.2451H8.71513V61.3399C8.71513 67.3155 11.6222 69.8995 17.2209 69.8995C22.8197 69.8995 25.7267 67.3155 25.7267 61.3399V38.2451H33.6403V61.6091C33.6403 71.4607 27.6109 76.4673 17.2209 76.4673Z" fill="#6D2DD3"/>
	<path d="M118.108 7.27246C120.146 7.27246 121.319 8.7519 121.319 10.8454C121.319 12.2411 120.928 13.916 120.314 15.5908H117.829C118.555 13.9997 119.085 12.3807 119.085 11.1246C119.085 9.7568 118.443 8.97521 117.271 8.97521C115.764 8.97521 114.396 10.2034 113.586 13.7206V22.0948H111.297V7.5516H112.805L113.475 12.1016C114.173 9.03104 115.903 7.27246 118.108 7.27246Z" fill="#171717"/>
	<path d="M100.593 22.3739C96.3783 22.3739 93.559 19.3592 93.559 14.8371C93.559 10.2872 96.3783 7.27246 100.593 7.27246C104.78 7.27246 107.6 10.2872 107.6 14.8371C107.6 19.3592 104.78 22.3739 100.593 22.3739ZM100.593 20.5874C103.441 20.5874 105.311 18.3543 105.311 14.8371C105.311 11.3479 103.468 9.05895 100.593 9.05895C97.7461 9.05895 95.848 11.2921 95.848 14.8371C95.848 18.2985 97.7182 20.5874 100.593 20.5874Z" fill="#171717"/>
	<path d="M87.9808 7.55099H93.2286V9.22583H88.2879V22.0942H85.9989V9.22583H81.4769V7.55099H86.1664C84.9382 6.49026 84.2124 5.20622 84.2124 3.95009C84.2124 2.02403 85.636 0.65625 88.1483 0.65625C89.4603 0.65625 91.0513 1.27036 92.0842 2.1636L92.2796 4.53629C91.163 3.19642 89.9627 2.66605 88.7903 2.66605C87.4784 2.66605 86.5851 3.44764 86.5851 4.62003C86.5851 5.40162 86.9201 6.43443 87.9808 7.55099Z" fill="#171717"/>
	<path d="M71.275 17.461L73.3127 18.0472C72.559 20.8386 70.3259 22.3739 67.0879 22.3739C62.6775 22.3739 60.1931 19.3871 60.1931 14.8371C60.1931 9.98011 62.8171 7.27246 66.8646 7.27246C71.61 7.27246 73.2569 10.4546 73.2569 15.3117H62.4263C62.5658 18.6613 64.129 20.727 67.1158 20.727C69.4606 20.727 70.7446 19.5546 71.275 17.461ZM66.9483 8.91938C64.1848 8.91938 62.4821 10.678 62.4263 14.5859L71.0517 13.8881C70.9121 10.9292 69.8235 8.91938 66.9483 8.91938Z" fill="#171717"/>
	<path d="M54.2409 11.0116V2.55371H56.502V22.0935H55.0225L54.3247 18.3251C53.4593 20.8932 51.6729 22.3726 49.1048 22.3726C45.476 22.3726 43.0195 19.6091 43.0195 14.8358C43.0195 10.0626 45.476 7.27117 49.1048 7.27117C51.5612 7.27117 53.3198 8.63895 54.2409 11.0116ZM49.6351 20.5861C51.617 20.5861 53.2919 19.3858 54.2409 17.2923V12.3515C53.2919 10.258 51.617 9.05766 49.6351 9.05766C46.8717 9.05766 45.3085 11.1512 45.3085 14.8358C45.3085 18.4926 46.8717 20.5861 49.6351 20.5861Z" fill="#171717"/>
	<path d="M41.684 19.9454L41.9632 21.8715C41.4886 22.2064 40.6233 22.346 40.0092 22.346C37.8877 22.346 36.4362 20.8107 36.4362 18.9126V18.6055C35.2917 20.9782 33.1703 22.3739 30.9372 22.3739C28.2853 22.3739 26.5267 20.8386 26.5267 18.5497C26.5267 16.0654 28.3412 14.3905 31.0767 14.3905C32.8632 14.3905 34.8451 15.1442 36.4362 16.5957V12.6878C36.4362 10.2872 35.0684 8.91938 32.7516 8.91938C30.2951 8.91938 28.8715 10.5105 28.6203 13.2181L26.5826 12.3249C26.9734 9.28226 29.2623 7.27246 32.8353 7.27246C36.3245 7.27246 38.6972 9.28226 38.6972 12.6878V18.6334C38.6972 19.8337 39.3113 20.5595 40.3162 20.5595C40.8187 20.5595 41.377 20.3083 41.684 19.9454ZM31.8862 20.727C33.6448 20.727 35.4313 19.4709 36.4362 17.5448V17.2377C35.0126 16.2049 33.3098 15.6466 31.8862 15.6466C30.0439 15.6466 28.8157 16.7074 28.8157 18.2706C28.8157 19.75 30.0439 20.727 31.8862 20.727Z" fill="#171717"/>
	<path d="M11.3331 20.4466L18.814 2.55371H22.694V22.0935H20.3493V4.56352L13.0079 22.0935H9.68614L2.31686 4.56352V22.0935H0V2.55371H3.85212L11.3331 20.4466Z" fill="#171717"/>
</svg>
