<svg width="16" height="16" viewBox="0 0 16 16" fill="none" xmlns="http://www.w3.org/2000/svg">
<path fill-rule="evenodd" clip-rule="evenodd" d="M7.99951 0C12.4178 0 15.9995 3.58173 15.9995 8C15.9995 12.4183 12.4178 16 7.99951 16C3.58124 16 -0.000488281 12.4183 -0.000488281 8C-0.000488281 3.58173 3.58124 0 7.99951 0Z" fill="url(#paint0_linear_445_1377)"/>
<path d="M9.03903 15.9324V9.75305H10.7811L11.012 7.57822H9.03903L9.04196 6.48961C9.04196 5.92236 9.09585 5.61857 9.91062 5.61857H10.9998V3.44336H9.25734C7.16434 3.44336 6.42777 4.49834 6.42777 6.27274V7.57838H5.12305V9.75342H6.42777V15.8448C6.93605 15.946 7.46153 15.9995 7.99956 15.9995C8.34714 15.9996 8.69435 15.9771 9.03903 15.9324Z" fill="white"/>
<defs>
<linearGradient id="paint0_linear_445_1377" x1="7.99951" y1="-0.145768" x2="7.99951" y2="16.6822" gradientUnits="userSpaceOnUse">
<stop stop-color="#00B2FF"/>
<stop offset="1" stop-color="#006AFF"/>
</linearGradient>
</defs>
</svg>
