<svg width="16" height="16" viewBox="0 0 16 16" fill="none" xmlns="http://www.w3.org/2000/svg">
<g clip-path="url(#clip0_445_1382)">
<path d="M8.00369 0.121094C4.71375 0.121094 3.75157 0.124488 3.56454 0.140003C2.88939 0.196124 2.46927 0.302427 2.01157 0.530306C1.65884 0.705457 1.38066 0.908488 1.10612 1.19309C0.606116 1.71212 0.303085 2.35067 0.193388 3.1097C0.140055 3.47818 0.12454 3.55334 0.121388 5.43552C0.120176 6.06291 0.121388 6.88861 0.121388 7.99612C0.121388 11.2834 0.125025 12.2446 0.140782 12.4313C0.195328 13.0882 0.298358 13.5016 0.51654 13.9537C0.93351 14.8192 1.72987 15.4689 2.66806 15.7113C2.9929 15.7949 3.35169 15.841 3.8123 15.8628C4.00745 15.8713 5.99654 15.8773 7.98684 15.8773C9.97715 15.8773 11.9674 15.8749 12.1578 15.8652C12.6911 15.8401 13.0008 15.7985 13.3432 15.7101C14.2874 15.4664 15.0693 14.8264 15.4947 13.9489C15.7087 13.5076 15.8171 13.0785 15.8662 12.4559C15.8769 12.3201 15.8814 10.1556 15.8814 7.99406C15.8814 5.83212 15.8765 3.67164 15.8659 3.53588C15.8162 2.90315 15.7077 2.4777 15.4868 2.028C15.3056 1.65988 15.1044 1.38497 14.8123 1.10388C14.291 0.605942 13.6534 0.302912 12.8936 0.193336C12.5255 0.140124 12.4522 0.124366 10.5685 0.121094H8.00369Z" fill="url(#paint0_radial_445_1382)"/>
<path d="M8.00369 0.121094C4.71375 0.121094 3.75157 0.124488 3.56454 0.140003C2.88939 0.196124 2.46927 0.302427 2.01157 0.530306C1.65884 0.705457 1.38066 0.908488 1.10612 1.19309C0.606116 1.71212 0.303085 2.35067 0.193388 3.1097C0.140055 3.47818 0.12454 3.55334 0.121388 5.43552C0.120176 6.06291 0.121388 6.88861 0.121388 7.99612C0.121388 11.2834 0.125025 12.2446 0.140782 12.4313C0.195328 13.0882 0.298358 13.5016 0.51654 13.9537C0.93351 14.8192 1.72987 15.4689 2.66806 15.7113C2.9929 15.7949 3.35169 15.841 3.8123 15.8628C4.00745 15.8713 5.99654 15.8773 7.98684 15.8773C9.97715 15.8773 11.9674 15.8749 12.1578 15.8652C12.6911 15.8401 13.0008 15.7985 13.3432 15.7101C14.2874 15.4664 15.0693 14.8264 15.4947 13.9489C15.7087 13.5076 15.8171 13.0785 15.8662 12.4559C15.8769 12.3201 15.8814 10.1556 15.8814 7.99406C15.8814 5.83212 15.8765 3.67164 15.8659 3.53588C15.8162 2.90315 15.7077 2.4777 15.4868 2.028C15.3056 1.65988 15.1044 1.38497 14.8123 1.10388C14.291 0.605942 13.6534 0.302912 12.8936 0.193336C12.5255 0.140124 12.4522 0.124366 10.5685 0.121094H8.00369Z" fill="url(#paint1_radial_445_1382)"/>
<path d="M7.99994 2.18164C6.41982 2.18164 6.22152 2.18855 5.60091 2.21679C4.98152 2.24516 4.55873 2.34322 4.18879 2.4871C3.80612 2.6357 3.48152 2.83449 3.15812 3.158C2.83449 3.4814 2.6357 3.806 2.48661 4.18855C2.34237 4.55861 2.24418 4.98152 2.2163 5.60067C2.18855 6.22128 2.18127 6.4197 2.18127 7.99982C2.18127 9.57994 2.1883 9.77764 2.21643 10.3982C2.24491 11.0176 2.34297 11.4404 2.48673 11.8104C2.63546 12.193 2.83424 12.5176 3.15776 12.841C3.48103 13.1647 3.80564 13.3639 4.18806 13.5126C4.55824 13.6564 4.98115 13.7545 5.60043 13.7829C6.22103 13.8111 6.41921 13.818 7.99921 13.818C9.57946 13.818 9.77715 13.8111 10.3978 13.7829C11.0172 13.7545 11.4404 13.6564 11.8106 13.5126C12.1932 13.3639 12.5173 13.1647 12.8405 12.841C13.1642 12.5176 13.363 12.193 13.5121 11.8105C13.6551 11.4404 13.7533 11.0175 13.7824 10.3984C13.8102 9.77776 13.8175 9.57994 13.8175 7.99982C13.8175 6.4197 13.8102 6.2214 13.7824 5.60079C13.7533 4.9814 13.6551 4.55861 13.5121 4.18867C13.363 3.806 13.1642 3.4814 12.8405 3.158C12.5169 2.83437 12.1933 2.63558 11.8102 2.4871C11.4393 2.34322 11.0163 2.24516 10.3969 2.21679C9.7763 2.18855 9.57873 2.18164 7.99812 2.18164H7.99994ZM7.478 3.23013C7.63291 3.22988 7.80576 3.23013 7.99994 3.23013C9.5534 3.23013 9.73752 3.2357 10.351 3.26358C10.9182 3.28952 11.2261 3.38431 11.4312 3.46394C11.7027 3.5694 11.8963 3.69546 12.0998 3.8991C12.3035 4.10273 12.4295 4.29667 12.5352 4.56819C12.6149 4.77303 12.7098 5.08091 12.7356 5.64819C12.7635 6.26152 12.7695 6.44576 12.7695 7.99849C12.7695 9.55122 12.7635 9.73546 12.7356 10.3488C12.7096 10.9161 12.6149 11.2239 12.5352 11.4288C12.4298 11.7003 12.3035 11.8936 12.0998 12.0972C11.8962 12.3008 11.7029 12.4269 11.4312 12.5323C11.2264 12.6123 10.9182 12.7069 10.351 12.7328C9.73764 12.7607 9.5534 12.7667 7.99994 12.7667C6.44637 12.7667 6.26224 12.7607 5.64891 12.7328C5.08164 12.7066 4.77376 12.6118 4.56855 12.5322C4.29703 12.4267 4.10309 12.3007 3.89946 12.097C3.69582 11.8934 3.56976 11.6999 3.46406 11.4283C3.38443 11.2235 3.28952 10.9156 3.2637 10.3483C3.23582 9.73497 3.23024 9.55073 3.23024 7.99703C3.23024 6.44334 3.23582 6.26007 3.2637 5.64673C3.28964 5.07946 3.38443 4.77158 3.46406 4.56649C3.56952 4.29497 3.69582 4.10103 3.89946 3.8974C4.10309 3.69376 4.29703 3.5677 4.56855 3.462C4.77364 3.382 5.08164 3.28746 5.64891 3.2614C6.18564 3.23716 6.39364 3.22988 7.478 3.22867V3.23013ZM11.1056 4.19619C10.7202 4.19619 10.4075 4.50855 10.4075 4.89413C10.4075 5.27958 10.7202 5.59231 11.1056 5.59231C11.4911 5.59231 11.8038 5.27958 11.8038 4.89413C11.8038 4.50867 11.4911 4.19594 11.1056 4.19594V4.19619ZM7.99994 5.01194C6.34988 5.01194 5.01206 6.34976 5.01206 7.99982C5.01206 9.64988 6.34988 10.9871 7.99994 10.9871C9.65 10.9871 10.9873 9.64988 10.9873 7.99982C10.9873 6.34976 9.65 5.01194 7.99994 5.01194ZM7.99994 6.06043C9.07097 6.06043 9.93933 6.92867 9.93933 7.99982C9.93933 9.07085 9.07097 9.93922 7.99994 9.93922C6.92879 9.93922 6.06055 9.07085 6.06055 7.99982C6.06055 6.92867 6.92879 6.06043 7.99994 6.06043Z" fill="white"/>
</g>
<defs>
<radialGradient id="paint0_radial_445_1382" cx="0" cy="0" r="1" gradientUnits="userSpaceOnUse" gradientTransform="translate(4.30726 17.0909) rotate(-90) scale(15.6156 14.5277)">
<stop stop-color="#FFDD55"/>
<stop offset="0.1" stop-color="#FFDD55"/>
<stop offset="0.5" stop-color="#FF543E"/>
<stop offset="1" stop-color="#C837AB"/>
</radialGradient>
<radialGradient id="paint1_radial_445_1382" cx="0" cy="0" r="1" gradientUnits="userSpaceOnUse" gradientTransform="translate(-2.51912 1.25615) rotate(78.6776) scale(6.98031 28.7804)">
<stop stop-color="#3771C8"/>
<stop offset="0.128" stop-color="#3771C8"/>
<stop offset="1" stop-color="#6600FF" stop-opacity="0"/>
</radialGradient>
<clipPath id="clip0_445_1382">
<rect width="16.0005" height="16" fill="white" transform="translate(-0.000488281)"/>
</clipPath>
</defs>
</svg>
