<svg width="19" height="18" viewBox="0 0 19 18" fill="none" xmlns="http://www.w3.org/2000/svg">
<g clip-path="url(#clip0_445_1393)">
<path d="M9.13621 0C4.16563 0 0.13623 4.0294 0.13623 8.99998C0.13623 13.9706 4.16563 18 9.13621 18C14.1068 18 18.1362 13.9706 18.1362 8.99998C18.1362 4.0294 14.1067 0 9.13621 0ZM6.735 13.3511H4.75896V6.96705H6.735V13.3511ZM5.73756 6.13101C5.09221 6.13101 4.56904 5.60358 4.56904 4.95305C4.56904 4.30246 5.09228 3.77506 5.73756 3.77506C6.38284 3.77506 6.90602 4.30246 6.90602 4.95305C6.90605 5.60361 6.38288 6.13101 5.73756 6.13101ZM14.1402 13.3511H12.1737V9.99998C12.1737 9.08088 11.8246 8.56783 11.0979 8.56783C10.3069 8.56783 9.8937 9.10217 9.8937 9.99998V13.3511H7.99845V6.96705H9.8937V7.82687C9.8937 7.82687 10.4638 6.77232 11.8175 6.77232C13.1712 6.77232 14.1402 7.59888 14.1402 9.3088L14.1402 13.3511Z" fill="#1151B8"/>
</g>
<defs>
<clipPath id="clip0_445_1393">
<rect width="18" height="18" fill="white" transform="translate(0.13623)"/>
</clipPath>
</defs>
</svg>
