<svg width="16" height="16" viewBox="0 0 16 16" fill="none" xmlns="http://www.w3.org/2000/svg">
<g clip-path="url(#clip0_445_1388)">
<path d="M8 16C12.4183 16 16 12.4183 16 8C16 3.58172 12.4183 0 8 0C3.58172 0 0 3.58172 0 8C0 12.4183 3.58172 16 8 16Z" fill="#FF4500"/>
<path d="M13.336 8.00008C13.3376 8.10968 13.324 8.21908 13.2952 8.32488C13.2664 8.43068 13.2228 8.53208 13.1656 8.62568C13.1086 8.71928 13.0386 8.80448 12.9578 8.87868C12.877 8.95288 12.7862 9.01528 12.688 9.06408C12.6902 9.09328 12.692 9.12268 12.693 9.15208C12.6954 9.21072 12.6954 9.26944 12.693 9.32808C12.692 9.35748 12.6902 9.38688 12.688 9.41608C12.688 11.2081 10.6 12.6641 8.024 12.6641C5.448 12.6641 3.36 11.2081 3.36 9.41608C3.3578 9.38688 3.356 9.35748 3.355 9.32808C3.35259 9.26944 3.35259 9.21072 3.355 9.15208C3.356 9.12268 3.3578 9.09328 3.36 9.06408C3.20615 8.99336 3.0695 8.89006 2.95952 8.76132C2.84953 8.63258 2.76883 8.48148 2.723 8.31848C2.67724 8.1554 2.6675 7.98433 2.69443 7.81711C2.72137 7.6499 2.78435 7.49054 2.879 7.35008C2.97356 7.20964 3.09755 7.09147 3.24236 7.00374C3.38717 6.91602 3.54934 6.86086 3.7176 6.84208C3.88588 6.82322 4.05625 6.84117 4.21691 6.8947C4.37756 6.94823 4.52466 7.03605 4.648 7.15208C4.87696 6.99689 5.11686 6.85846 5.3658 6.73788C5.6148 6.61748 5.8722 6.51508 6.136 6.43188C6.3998 6.34868 6.6694 6.28488 6.9424 6.24068C7.2154 6.19648 7.4914 6.17228 7.768 6.16808L8.36 3.39208C8.3666 3.35988 8.3796 3.32948 8.3982 3.30228C8.4166 3.27528 8.4404 3.25208 8.4678 3.23428C8.4954 3.21648 8.5262 3.20428 8.5586 3.19828C8.5908 3.19248 8.624 3.19308 8.656 3.20008L10.616 3.59208C10.8138 3.25228 11.229 3.10668 11.5956 3.24828C11.9622 3.38988 12.1718 3.77688 12.0898 4.16128C12.008 4.54568 11.6588 4.81368 11.2664 4.79348C10.8738 4.77328 10.554 4.47088 10.512 4.08008L8.8 3.72008L8.28 6.21608C8.5532 6.22188 8.8258 6.24748 9.0954 6.29248C9.63529 6.38247 10.1594 6.54993 10.6514 6.78968C10.8972 6.90928 11.134 7.04643 11.36 7.20008C11.5225 7.04404 11.7267 6.93839 11.948 6.89588C12.1693 6.85322 12.3981 6.87552 12.607 6.96008C12.8159 7.0446 12.9959 7.18776 13.1252 7.37228C13.2546 7.55682 13.3278 7.77485 13.336 8.00008ZM5.3968 9.10628C5.4372 9.20328 5.496 9.29148 5.5704 9.36568C5.6446 9.44008 5.7328 9.49888 5.8298 9.53928C5.92689 9.57943 6.03093 9.60009 6.136 9.60008C6.4596 9.60008 6.7512 9.40508 6.8752 9.10628C6.999 8.80728 6.9304 8.46328 6.7016 8.23448C6.4728 8.00568 6.1288 7.93708 5.8298 8.06088C5.531 8.18488 5.336 8.47648 5.336 8.80008C5.336 8.90508 5.3566 9.00908 5.3968 9.10628ZM9.9788 11.0267C10.0198 10.9867 10.0432 10.9321 10.044 10.8749C10.0448 10.8175 10.0226 10.7623 9.9826 10.7213C9.9426 10.6803 9.888 10.6569 9.8308 10.6561C9.7734 10.6553 9.7182 10.6775 9.672 10.7121C9.5517 10.7984 9.42431 10.8743 9.2912 10.9391C9.15807 11.0039 9.01972 11.0573 8.8776 11.0989C8.7356 11.1403 8.5902 11.1697 8.4432 11.1867C8.296 11.2037 8.1478 11.2081 8 11.2001C7.8524 11.2067 7.7044 11.2007 7.5578 11.1823C7.41116 11.1641 7.26636 11.1333 7.125 11.0903C6.9834 11.0475 6.846 10.9927 6.7138 10.9267C6.5816 10.8607 6.4552 10.7835 6.336 10.6961C6.2946 10.6621 6.242 10.6447 6.1884 10.6473C6.1348 10.6499 6.0842 10.6725 6.0462 10.7103C6.0084 10.7483 5.9858 10.7989 5.9832 10.8525C5.9806 10.9061 5.998 10.9587 6.032 11.0001C6.1726 11.1061 6.322 11.1997 6.4786 11.2801C6.6352 11.3605 6.7986 11.4271 6.9666 11.4795C7.1346 11.5319 7.3068 11.5697 7.4814 11.5927C7.656 11.6155 7.8322 11.6233 8.008 11.6161C8.1838 11.6233 8.36 11.6155 8.5346 11.5927C8.8843 11.5467 9.2235 11.4409 9.5374 11.2801C9.694 11.1997 9.8434 11.1061 9.984 11.0001L9.9788 11.0267ZM9.832 9.66408C9.9404 9.66528 10.048 9.64428 10.1482 9.60268C10.2484 9.56088 10.339 9.49928 10.4146 9.42148C10.4902 9.34368 10.549 9.25128 10.5878 9.14988C10.6266 9.0486 10.6444 8.94046 10.64 8.83208C10.64 8.50848 10.445 8.21688 10.1462 8.09288C9.8472 7.96908 9.5032 8.03768 9.2744 8.26648C9.0456 8.49528 8.977 8.83928 9.1008 9.13828C9.2248 9.43708 9.5164 9.63208 9.84 9.63208L9.832 9.66408Z" fill="white"/>
</g>
<defs>
<clipPath id="clip0_445_1388">
<rect width="16" height="16" fill="white"/>
</clipPath>
</defs>
</svg>
