<svg width="18" height="18" viewBox="0 0 18 18" fill="none" xmlns="http://www.w3.org/2000/svg">
<path d="M4.8405 15.568L5.13239 15.7139C6.32257 16.4219 7.68325 16.7919 9.06803 16.7842C13.3311 16.7745 16.8338 13.2635 16.8338 9.00046C16.8338 6.94021 16.0155 4.96168 14.5604 3.5032C13.1073 2.02965 11.122 1.19922 9.05296 1.19922C4.80937 1.19922 1.31787 4.6912 1.31787 8.9343C1.31787 8.96788 1.31787 9.00095 1.31836 9.03452C1.33114 10.4772 1.73463 11.8894 2.48592 13.121L2.68051 13.4129L1.90214 16.2831L4.8405 15.568Z" fill="#25D366"/>
<path d="M15.4264 2.62714C13.7699 0.937082 11.4975 -0.0110583 9.1313 9.73399e-05H9.11621C4.24313 0.00011258 0.23305 4.01021 0.23305 8.8833C0.23305 8.90616 0.233538 8.92855 0.233538 8.95143C0.251893 10.5008 0.652979 12.0215 1.4011 13.3784L0.13623 18L4.85026 16.7838C6.15252 17.4987 7.61657 17.8673 9.10211 17.8541C13.9932 17.8273 18.0028 13.7944 17.9999 8.90276C18.0116 6.55256 17.0848 4.29236 15.4264 2.62714ZM9.1313 16.346C7.81447 16.3528 6.52082 15.9995 5.39025 15.3243L5.09836 15.1784L2.29135 15.9081L3.02107 13.1352L2.82648 12.8433C2.10366 11.6762 1.72072 10.3306 1.7207 8.95774C1.7207 4.90923 5.05215 1.57777 9.10067 1.57777C13.1492 1.57777 16.4806 4.90923 16.4806 8.95774C16.4806 11.5069 15.1598 13.8819 12.994 15.227C11.8485 15.9608 10.516 16.3493 9.15564 16.346M13.4318 10.946L12.8967 10.7028C12.8967 10.7028 12.1183 10.3622 11.6318 10.119C11.5832 10.119 11.5345 10.0703 11.4859 10.0703C11.3659 10.0733 11.2487 10.1068 11.1453 10.1676C11.0417 10.2284 11.0967 10.2163 10.4156 10.9946C10.3694 11.0856 10.2745 11.1425 10.1724 11.1406H10.1237C10.0506 11.1283 9.98281 11.0945 9.92914 11.0433L9.6859 10.946C9.16398 10.725 8.68609 10.4119 8.27509 10.0217C8.17779 9.92438 8.03185 9.82707 7.93455 9.72978C7.57441 9.38478 7.2634 8.99192 7.01024 8.56223L6.96158 8.46493C6.91932 8.40547 6.8865 8.33983 6.86429 8.27034C6.85157 8.18606 6.86878 8.1 6.91293 8.0271C6.95721 7.95412 7.10753 7.78384 7.25347 7.63791C7.39943 7.49197 7.39943 7.39468 7.49672 7.29737C7.54672 7.22792 7.58128 7.14858 7.59806 7.06466C7.61484 6.98075 7.61346 6.89421 7.59401 6.81088C7.36729 6.18139 7.10747 5.56432 6.81564 4.96225C6.73742 4.8406 6.61555 4.75355 6.4751 4.71901H5.93997C5.84268 4.71901 5.74538 4.76765 5.64808 4.76765L5.59943 4.8163C5.50214 4.86494 5.40485 4.96225 5.30754 5.0109C5.21025 5.05954 5.1616 5.2055 5.06431 5.30279C4.72422 5.73256 4.53604 6.26287 4.52917 6.81088C4.53456 7.19637 4.61727 7.57686 4.7724 7.9298L4.82106 8.07574C5.25788 9.00967 5.86879 9.85173 6.62106 10.5568L6.81564 10.7514C6.95725 10.8687 7.08755 10.999 7.20483 11.1406C8.21281 12.0177 9.41005 12.6501 10.7026 12.9892C10.8486 13.0379 11.0432 13.0379 11.1891 13.0865H11.6756C11.9299 13.074 12.1786 13.0077 12.4053 12.8919C12.5245 12.8379 12.6384 12.7727 12.7459 12.6973L12.8432 12.6C12.9405 12.5027 13.0378 12.4541 13.1351 12.3568C13.2301 12.2721 13.3121 12.1737 13.3783 12.0649C13.4717 11.847 13.5374 11.6183 13.5729 11.3838V11.0433C13.5292 11.004 13.48 10.9712 13.4269 10.946" fill="white"/>
</svg>
